G04 #@! TF.FileFunction,Legend,Bot*
%FSLAX46Y46*%
G04 Gerber Fmt 4.6, Leading zero omitted, Abs format (unit mm)*
G04 Created by KiCad (PCBNEW 4.0.7-e2-6376~58~ubuntu16.04.1) date Thu Nov 16 14:30:51 2017*
%MOMM*%
%LPD*%
G01*
G04 APERTURE LIST*
%ADD10C,0.100000*%
%ADD11C,0.300000*%
%ADD12C,0.150000*%
G04 APERTURE END LIST*
D10*
D11*
X149999999Y-54250000D02*
X149285713Y-54250000D01*
X150142856Y-54678571D02*
X149642856Y-53178571D01*
X149142856Y-54678571D01*
X148857142Y-53178571D02*
X147999999Y-53178571D01*
X148428570Y-54678571D02*
X148428570Y-53178571D01*
X147714285Y-53178571D02*
X146857142Y-53178571D01*
X147285713Y-54678571D02*
X147285713Y-53178571D01*
X146357142Y-54678571D02*
X146357142Y-53178571D01*
X145642856Y-54678571D02*
X145642856Y-53178571D01*
X144785713Y-54678571D01*
X144785713Y-53178571D01*
X143785713Y-53964286D02*
X143785713Y-54678571D01*
X144285713Y-53178571D02*
X143785713Y-53964286D01*
X143285713Y-53178571D01*
X142857142Y-53321429D02*
X142785713Y-53250000D01*
X142642856Y-53178571D01*
X142285713Y-53178571D01*
X142142856Y-53250000D01*
X142071427Y-53321429D01*
X141999999Y-53464286D01*
X141999999Y-53607143D01*
X142071427Y-53821429D01*
X142928570Y-54678571D01*
X141999999Y-54678571D01*
X141499999Y-53178571D02*
X140571428Y-53178571D01*
X141071428Y-53750000D01*
X140857142Y-53750000D01*
X140714285Y-53821429D01*
X140642856Y-53892857D01*
X140571428Y-54035714D01*
X140571428Y-54392857D01*
X140642856Y-54535714D01*
X140714285Y-54607143D01*
X140857142Y-54678571D01*
X141285714Y-54678571D01*
X141428571Y-54607143D01*
X141499999Y-54535714D01*
X139142857Y-54678571D02*
X140000000Y-54678571D01*
X139571428Y-54678571D02*
X139571428Y-53178571D01*
X139714285Y-53392857D01*
X139857143Y-53535714D01*
X140000000Y-53607143D01*
X138642857Y-53178571D02*
X137714286Y-53178571D01*
X138214286Y-53750000D01*
X138000000Y-53750000D01*
X137857143Y-53821429D01*
X137785714Y-53892857D01*
X137714286Y-54035714D01*
X137714286Y-54392857D01*
X137785714Y-54535714D01*
X137857143Y-54607143D01*
X138000000Y-54678571D01*
X138428572Y-54678571D01*
X138571429Y-54607143D01*
X138642857Y-54535714D01*
X137071429Y-54107143D02*
X135928572Y-54107143D01*
X135285715Y-53321429D02*
X135214286Y-53250000D01*
X135071429Y-53178571D01*
X134714286Y-53178571D01*
X134571429Y-53250000D01*
X134500000Y-53321429D01*
X134428572Y-53464286D01*
X134428572Y-53607143D01*
X134500000Y-53821429D01*
X135357143Y-54678571D01*
X134428572Y-54678571D01*
X133500001Y-53178571D02*
X133357144Y-53178571D01*
X133214287Y-53250000D01*
X133142858Y-53321429D01*
X133071429Y-53464286D01*
X133000001Y-53750000D01*
X133000001Y-54107143D01*
X133071429Y-54392857D01*
X133142858Y-54535714D01*
X133214287Y-54607143D01*
X133357144Y-54678571D01*
X133500001Y-54678571D01*
X133642858Y-54607143D01*
X133714287Y-54535714D01*
X133785715Y-54392857D01*
X133857144Y-54107143D01*
X133857144Y-53750000D01*
X133785715Y-53464286D01*
X133714287Y-53321429D01*
X133642858Y-53250000D01*
X133500001Y-53178571D01*
X132428573Y-54607143D02*
X132214287Y-54678571D01*
X131857144Y-54678571D01*
X131714287Y-54607143D01*
X131642858Y-54535714D01*
X131571430Y-54392857D01*
X131571430Y-54250000D01*
X131642858Y-54107143D01*
X131714287Y-54035714D01*
X131857144Y-53964286D01*
X132142858Y-53892857D01*
X132285716Y-53821429D01*
X132357144Y-53750000D01*
X132428573Y-53607143D01*
X132428573Y-53464286D01*
X132357144Y-53321429D01*
X132285716Y-53250000D01*
X132142858Y-53178571D01*
X131785716Y-53178571D01*
X131571430Y-53250000D01*
X130928573Y-53178571D02*
X130928573Y-54392857D01*
X130857145Y-54535714D01*
X130785716Y-54607143D01*
X130642859Y-54678571D01*
X130357145Y-54678571D01*
X130214287Y-54607143D01*
X130142859Y-54535714D01*
X130071430Y-54392857D01*
X130071430Y-53178571D01*
X182821429Y-89142858D02*
X182750000Y-89214287D01*
X182678571Y-89357144D01*
X182678571Y-89714287D01*
X182750000Y-89857144D01*
X182821429Y-89928573D01*
X182964286Y-90000001D01*
X183107143Y-90000001D01*
X183321429Y-89928573D01*
X184178571Y-89071430D01*
X184178571Y-90000001D01*
X182678571Y-90928572D02*
X182678571Y-91071429D01*
X182750000Y-91214286D01*
X182821429Y-91285715D01*
X182964286Y-91357144D01*
X183250000Y-91428572D01*
X183607143Y-91428572D01*
X183892857Y-91357144D01*
X184035714Y-91285715D01*
X184107143Y-91214286D01*
X184178571Y-91071429D01*
X184178571Y-90928572D01*
X184107143Y-90785715D01*
X184035714Y-90714286D01*
X183892857Y-90642858D01*
X183607143Y-90571429D01*
X183250000Y-90571429D01*
X182964286Y-90642858D01*
X182821429Y-90714286D01*
X182750000Y-90785715D01*
X182678571Y-90928572D01*
X184178571Y-92857143D02*
X184178571Y-92000000D01*
X184178571Y-92428572D02*
X182678571Y-92428572D01*
X182892857Y-92285715D01*
X183035714Y-92142857D01*
X183107143Y-92000000D01*
X182678571Y-93357143D02*
X182678571Y-94357143D01*
X184178571Y-93714286D01*
X184035714Y-94928571D02*
X184107143Y-94999999D01*
X184178571Y-94928571D01*
X184107143Y-94857142D01*
X184035714Y-94928571D01*
X184178571Y-94928571D01*
X184178571Y-96428571D02*
X184178571Y-95571428D01*
X184178571Y-96000000D02*
X182678571Y-96000000D01*
X182892857Y-95857143D01*
X183035714Y-95714285D01*
X183107143Y-95571428D01*
X182821429Y-96999999D02*
X182750000Y-97071428D01*
X182678571Y-97214285D01*
X182678571Y-97571428D01*
X182750000Y-97714285D01*
X182821429Y-97785714D01*
X182964286Y-97857142D01*
X183107143Y-97857142D01*
X183321429Y-97785714D01*
X184178571Y-96928571D01*
X184178571Y-97857142D01*
X96557143Y-50107142D02*
X96628571Y-50321428D01*
X96628571Y-50678571D01*
X96557143Y-50821428D01*
X96485714Y-50892857D01*
X96342857Y-50964285D01*
X96200000Y-50964285D01*
X96057143Y-50892857D01*
X95985714Y-50821428D01*
X95914286Y-50678571D01*
X95842857Y-50392857D01*
X95771429Y-50249999D01*
X95700000Y-50178571D01*
X95557143Y-50107142D01*
X95414286Y-50107142D01*
X95271429Y-50178571D01*
X95200000Y-50249999D01*
X95128571Y-50392857D01*
X95128571Y-50749999D01*
X95200000Y-50964285D01*
X96628571Y-51607142D02*
X95128571Y-51607142D01*
X95128571Y-52178570D01*
X95200000Y-52321428D01*
X95271429Y-52392856D01*
X95414286Y-52464285D01*
X95628571Y-52464285D01*
X95771429Y-52392856D01*
X95842857Y-52321428D01*
X95914286Y-52178570D01*
X95914286Y-51607142D01*
X95128571Y-53392856D02*
X95128571Y-53678570D01*
X95200000Y-53821428D01*
X95342857Y-53964285D01*
X95628571Y-54035713D01*
X96128571Y-54035713D01*
X96414286Y-53964285D01*
X96557143Y-53821428D01*
X96628571Y-53678570D01*
X96628571Y-53392856D01*
X96557143Y-53249999D01*
X96414286Y-53107142D01*
X96128571Y-53035713D01*
X95628571Y-53035713D01*
X95342857Y-53107142D01*
X95200000Y-53249999D01*
X95128571Y-53392856D01*
X95128571Y-54464285D02*
X95128571Y-55321428D01*
X96628571Y-54892857D02*
X95128571Y-54892857D01*
X95128571Y-56821428D02*
X96628571Y-57178571D01*
X95557143Y-57464285D01*
X96628571Y-57749999D01*
X95128571Y-58107142D01*
X95842857Y-58678571D02*
X95842857Y-59178571D01*
X96628571Y-59392857D02*
X96628571Y-58678571D01*
X95128571Y-58678571D01*
X95128571Y-59392857D01*
X96628571Y-60750000D02*
X96628571Y-60035714D01*
X95128571Y-60035714D01*
X96628571Y-61250000D02*
X95128571Y-61250000D01*
X95128571Y-61607143D01*
X95200000Y-61821428D01*
X95342857Y-61964286D01*
X95485714Y-62035714D01*
X95771429Y-62107143D01*
X95985714Y-62107143D01*
X96271429Y-62035714D01*
X96414286Y-61964286D01*
X96557143Y-61821428D01*
X96628571Y-61607143D01*
X96628571Y-61250000D01*
X96628571Y-62750000D02*
X95128571Y-62750000D01*
X96628571Y-63464286D02*
X95128571Y-63464286D01*
X96628571Y-64321429D01*
X95128571Y-64321429D01*
X95200000Y-65821429D02*
X95128571Y-65678572D01*
X95128571Y-65464286D01*
X95200000Y-65250001D01*
X95342857Y-65107143D01*
X95485714Y-65035715D01*
X95771429Y-64964286D01*
X95985714Y-64964286D01*
X96271429Y-65035715D01*
X96414286Y-65107143D01*
X96557143Y-65250001D01*
X96628571Y-65464286D01*
X96628571Y-65607143D01*
X96557143Y-65821429D01*
X96485714Y-65892858D01*
X95985714Y-65892858D01*
X95985714Y-65607143D01*
X99035714Y-52750000D02*
X99107143Y-52678571D01*
X99178571Y-52464285D01*
X99178571Y-52321428D01*
X99107143Y-52107143D01*
X98964286Y-51964285D01*
X98821429Y-51892857D01*
X98535714Y-51821428D01*
X98321429Y-51821428D01*
X98035714Y-51892857D01*
X97892857Y-51964285D01*
X97750000Y-52107143D01*
X97678571Y-52321428D01*
X97678571Y-52464285D01*
X97750000Y-52678571D01*
X97821429Y-52750000D01*
X97678571Y-53678571D02*
X97678571Y-53964285D01*
X97750000Y-54107143D01*
X97892857Y-54250000D01*
X98178571Y-54321428D01*
X98678571Y-54321428D01*
X98964286Y-54250000D01*
X99107143Y-54107143D01*
X99178571Y-53964285D01*
X99178571Y-53678571D01*
X99107143Y-53535714D01*
X98964286Y-53392857D01*
X98678571Y-53321428D01*
X98178571Y-53321428D01*
X97892857Y-53392857D01*
X97750000Y-53535714D01*
X97678571Y-53678571D01*
X99178571Y-54964286D02*
X97678571Y-54964286D01*
X99178571Y-55821429D01*
X97678571Y-55821429D01*
X97678571Y-56321429D02*
X97678571Y-57178572D01*
X99178571Y-56750001D02*
X97678571Y-56750001D01*
X99178571Y-58535715D02*
X98464286Y-58035715D01*
X99178571Y-57678572D02*
X97678571Y-57678572D01*
X97678571Y-58250000D01*
X97750000Y-58392858D01*
X97821429Y-58464286D01*
X97964286Y-58535715D01*
X98178571Y-58535715D01*
X98321429Y-58464286D01*
X98392857Y-58392858D01*
X98464286Y-58250000D01*
X98464286Y-57678572D01*
X97678571Y-59464286D02*
X97678571Y-59750000D01*
X97750000Y-59892858D01*
X97892857Y-60035715D01*
X98178571Y-60107143D01*
X98678571Y-60107143D01*
X98964286Y-60035715D01*
X99107143Y-59892858D01*
X99178571Y-59750000D01*
X99178571Y-59464286D01*
X99107143Y-59321429D01*
X98964286Y-59178572D01*
X98678571Y-59107143D01*
X98178571Y-59107143D01*
X97892857Y-59178572D01*
X97750000Y-59321429D01*
X97678571Y-59464286D01*
X99178571Y-61464287D02*
X99178571Y-60750001D01*
X97678571Y-60750001D01*
X98392857Y-61964287D02*
X98392857Y-62464287D01*
X99178571Y-62678573D02*
X99178571Y-61964287D01*
X97678571Y-61964287D01*
X97678571Y-62678573D01*
X99178571Y-64178573D02*
X98464286Y-63678573D01*
X99178571Y-63321430D02*
X97678571Y-63321430D01*
X97678571Y-63892858D01*
X97750000Y-64035716D01*
X97821429Y-64107144D01*
X97964286Y-64178573D01*
X98178571Y-64178573D01*
X98321429Y-64107144D01*
X98392857Y-64035716D01*
X98464286Y-63892858D01*
X98464286Y-63321430D01*
X101728571Y-52107144D02*
X100228571Y-52107144D01*
X100800000Y-52107144D02*
X100728571Y-52250001D01*
X100728571Y-52535715D01*
X100800000Y-52678572D01*
X100871429Y-52750001D01*
X101014286Y-52821430D01*
X101442857Y-52821430D01*
X101585714Y-52750001D01*
X101657143Y-52678572D01*
X101728571Y-52535715D01*
X101728571Y-52250001D01*
X101657143Y-52107144D01*
X100728571Y-53321430D02*
X101728571Y-53678573D01*
X100728571Y-54035715D02*
X101728571Y-53678573D01*
X102085714Y-53535715D01*
X102157143Y-53464287D01*
X102228571Y-53321430D01*
X101728571Y-56607144D02*
X101014286Y-56107144D01*
X101728571Y-55750001D02*
X100228571Y-55750001D01*
X100228571Y-56321429D01*
X100300000Y-56464287D01*
X100371429Y-56535715D01*
X100514286Y-56607144D01*
X100728571Y-56607144D01*
X100871429Y-56535715D01*
X100942857Y-56464287D01*
X101014286Y-56321429D01*
X101014286Y-55750001D01*
X100228571Y-57107144D02*
X100228571Y-58107144D01*
X101728571Y-57107144D01*
X101728571Y-58107144D01*
X100228571Y-58535715D02*
X100228571Y-59464286D01*
X100800000Y-58964286D01*
X100800000Y-59178572D01*
X100871429Y-59321429D01*
X100942857Y-59392858D01*
X101085714Y-59464286D01*
X101442857Y-59464286D01*
X101585714Y-59392858D01*
X101657143Y-59321429D01*
X101728571Y-59178572D01*
X101728571Y-58750000D01*
X101657143Y-58607143D01*
X101585714Y-58535715D01*
X101728571Y-60107143D02*
X100228571Y-60107143D01*
X100228571Y-60464286D01*
X100300000Y-60678571D01*
X100442857Y-60821429D01*
X100585714Y-60892857D01*
X100871429Y-60964286D01*
X101085714Y-60964286D01*
X101371429Y-60892857D01*
X101514286Y-60821429D01*
X101657143Y-60678571D01*
X101728571Y-60464286D01*
X101728571Y-60107143D01*
X101728571Y-61607143D02*
X100228571Y-61607143D01*
X100228571Y-61964286D01*
X100300000Y-62178571D01*
X100442857Y-62321429D01*
X100585714Y-62392857D01*
X100871429Y-62464286D01*
X101085714Y-62464286D01*
X101371429Y-62392857D01*
X101514286Y-62321429D01*
X101657143Y-62178571D01*
X101728571Y-61964286D01*
X101728571Y-61607143D01*
X101728571Y-63107143D02*
X100228571Y-63107143D01*
X100228571Y-63464286D01*
X100300000Y-63678571D01*
X100442857Y-63821429D01*
X100585714Y-63892857D01*
X100871429Y-63964286D01*
X101085714Y-63964286D01*
X101371429Y-63892857D01*
X101514286Y-63821429D01*
X101657143Y-63678571D01*
X101728571Y-63464286D01*
X101728571Y-63107143D01*
D12*
X146575000Y-65455000D02*
X146325000Y-65455000D01*
X146575000Y-57705000D02*
X146240000Y-57705000D01*
X133425000Y-57705000D02*
X133760000Y-57705000D01*
X133425000Y-65455000D02*
X133760000Y-65455000D01*
X146575000Y-65455000D02*
X146575000Y-57705000D01*
X133425000Y-65455000D02*
X133425000Y-57705000D01*
X146325000Y-65455000D02*
X146325000Y-67255000D01*
X147952381Y-60818095D02*
X148761905Y-60818095D01*
X148857143Y-60865714D01*
X148904762Y-60913333D01*
X148952381Y-61008571D01*
X148952381Y-61199048D01*
X148904762Y-61294286D01*
X148857143Y-61341905D01*
X148761905Y-61389524D01*
X147952381Y-61389524D01*
X148952381Y-62389524D02*
X148952381Y-61818095D01*
X148952381Y-62103809D02*
X147952381Y-62103809D01*
X148095238Y-62008571D01*
X148190476Y-61913333D01*
X148238095Y-61818095D01*
M02*
