G04 #@! TF.FileFunction,Copper,L2,Bot,Signal*
%FSLAX46Y46*%
G04 Gerber Fmt 4.6, Leading zero omitted, Abs format (unit mm)*
G04 Created by KiCad (PCBNEW 4.0.7-e2-6376~58~ubuntu16.04.1) date Thu Nov 16 14:30:51 2017*
%MOMM*%
%LPD*%
G01*
G04 APERTURE LIST*
%ADD10C,0.100000*%
%ADD11R,3.000000X2.350000*%
%ADD12O,3.000000X2.350000*%
%ADD13C,1.500000*%
%ADD14C,1.400000*%
%ADD15O,1.400000X1.400000*%
%ADD16C,6.400000*%
%ADD17C,0.800000*%
%ADD18R,1.600000X1.600000*%
%ADD19C,1.600000*%
%ADD20R,1.700000X1.700000*%
%ADD21O,1.700000X1.700000*%
%ADD22R,2.000000X2.600000*%
%ADD23O,2.000000X2.600000*%
%ADD24R,2.600000X2.000000*%
%ADD25O,2.600000X2.000000*%
%ADD26C,1.000000*%
%ADD27R,1.000000X1.000000*%
%ADD28R,2.400000X2.800000*%
%ADD29O,1.720000X2.540000*%
%ADD30R,0.600000X1.950000*%
%ADD31C,1.700000*%
%ADD32C,0.600000*%
%ADD33C,0.500000*%
%ADD34C,0.250000*%
%ADD35C,1.000000*%
%ADD36C,0.750000*%
%ADD37C,0.254000*%
G04 APERTURE END LIST*
D10*
D11*
X99500000Y-74040000D03*
D12*
X99500000Y-78000000D03*
X99500000Y-81960000D03*
X99500000Y-85920000D03*
D13*
X137498000Y-71867000D03*
X142498000Y-71867000D03*
D14*
X117940000Y-67930000D03*
D15*
X117940000Y-60310000D03*
D16*
X95000000Y-45000000D03*
D17*
X97400000Y-45000000D03*
X96697056Y-46697056D03*
X95000000Y-47400000D03*
X93302944Y-46697056D03*
X92600000Y-45000000D03*
X93302944Y-43302944D03*
X95000000Y-42600000D03*
X96697056Y-43302944D03*
D16*
X185000000Y-45000000D03*
D17*
X187400000Y-45000000D03*
X186697056Y-46697056D03*
X185000000Y-47400000D03*
X183302944Y-46697056D03*
X182600000Y-45000000D03*
X183302944Y-43302944D03*
X185000000Y-42600000D03*
X186697056Y-43302944D03*
D16*
X185000000Y-106302944D03*
D17*
X187400000Y-106302944D03*
X186697056Y-108000000D03*
X185000000Y-108702944D03*
X183302944Y-108000000D03*
X182600000Y-106302944D03*
X183302944Y-104605888D03*
X185000000Y-103902944D03*
X186697056Y-104605888D03*
D16*
X95000000Y-106500000D03*
D17*
X97400000Y-106500000D03*
X96697056Y-108197056D03*
X95000000Y-108900000D03*
X93302944Y-108197056D03*
X92600000Y-106500000D03*
X93302944Y-104802944D03*
X95000000Y-104100000D03*
X96697056Y-104802944D03*
D16*
X109500000Y-45000000D03*
D17*
X111900000Y-45000000D03*
X111197056Y-46697056D03*
X109500000Y-47400000D03*
X107802944Y-46697056D03*
X107100000Y-45000000D03*
X107802944Y-43302944D03*
X109500000Y-42600000D03*
X111197056Y-43302944D03*
D16*
X170500000Y-45000000D03*
D17*
X172900000Y-45000000D03*
X172197056Y-46697056D03*
X170500000Y-47400000D03*
X168802944Y-46697056D03*
X168100000Y-45000000D03*
X168802944Y-43302944D03*
X170500000Y-42600000D03*
X172197056Y-43302944D03*
D16*
X109500000Y-56000000D03*
D17*
X111900000Y-56000000D03*
X111197056Y-57697056D03*
X109500000Y-58400000D03*
X107802944Y-57697056D03*
X107100000Y-56000000D03*
X107802944Y-54302944D03*
X109500000Y-53600000D03*
X111197056Y-54302944D03*
D16*
X170500000Y-56000000D03*
D17*
X172900000Y-56000000D03*
X172197056Y-57697056D03*
X170500000Y-58400000D03*
X168802944Y-57697056D03*
X168100000Y-56000000D03*
X168802944Y-54302944D03*
X170500000Y-53600000D03*
X172197056Y-54302944D03*
D18*
X109050000Y-74280000D03*
D19*
X109050000Y-76780000D03*
X148801000Y-74200000D03*
X148801000Y-69200000D03*
X117940000Y-73010000D03*
X117940000Y-78010000D03*
X130640000Y-74280000D03*
X130640000Y-69280000D03*
X147150000Y-81900000D03*
X152150000Y-81900000D03*
X177630000Y-81900000D03*
X172630000Y-81900000D03*
X142500000Y-106030000D03*
X137500000Y-106030000D03*
X163560000Y-98990000D03*
X168560000Y-98990000D03*
D20*
X166200000Y-81900000D03*
D21*
X166200000Y-84440000D03*
X163660000Y-81900000D03*
X163660000Y-84440000D03*
X161120000Y-81900000D03*
X161120000Y-84440000D03*
X158580000Y-81900000D03*
X158580000Y-84440000D03*
D22*
X113200000Y-104400000D03*
D23*
X115740000Y-104400000D03*
D24*
X181440000Y-73010000D03*
D25*
X181440000Y-70470000D03*
D24*
X181440000Y-64120000D03*
D25*
X181440000Y-61580000D03*
X181440000Y-59040000D03*
X181440000Y-56500000D03*
D22*
X164560000Y-104400000D03*
D23*
X167100000Y-104400000D03*
D26*
X114282400Y-93215700D03*
X115552400Y-94485700D03*
D27*
X113012400Y-94485700D03*
D14*
X161120000Y-89520000D03*
D15*
X153500000Y-89520000D03*
D14*
X166200000Y-89520000D03*
D15*
X173820000Y-89520000D03*
D14*
X163660000Y-62850000D03*
D15*
X163660000Y-70470000D03*
D14*
X158580000Y-62850000D03*
D15*
X158580000Y-70470000D03*
D14*
X153480000Y-92400000D03*
D15*
X161100000Y-92400000D03*
D14*
X125433000Y-72883000D03*
D15*
X125433000Y-65263000D03*
D14*
X173800000Y-92400000D03*
D15*
X166180000Y-92400000D03*
D14*
X104782800Y-100175300D03*
D15*
X104782800Y-92555300D03*
D14*
X153600000Y-106000000D03*
D15*
X145980000Y-106000000D03*
D14*
X157210000Y-95180000D03*
D15*
X157210000Y-102800000D03*
D28*
X134500000Y-95000000D03*
D29*
X137500000Y-87500000D03*
X140000000Y-87500000D03*
X142500000Y-87500000D03*
X137500000Y-102000000D03*
X142500000Y-102000000D03*
D28*
X145600000Y-95000000D03*
D30*
X145715000Y-66280000D03*
X144445000Y-66280000D03*
X143175000Y-66280000D03*
X141905000Y-66280000D03*
X140635000Y-66280000D03*
X139365000Y-66280000D03*
X138095000Y-66280000D03*
X136825000Y-66280000D03*
X135555000Y-66280000D03*
X134285000Y-66280000D03*
X134285000Y-56880000D03*
X135555000Y-56880000D03*
X136825000Y-56880000D03*
X138095000Y-56880000D03*
X139365000Y-56880000D03*
X140635000Y-56880000D03*
X141905000Y-56880000D03*
X143175000Y-56880000D03*
X144445000Y-56880000D03*
X145715000Y-56880000D03*
D20*
X134958000Y-48753000D03*
D31*
X134958000Y-46213000D03*
X137498000Y-48753000D03*
X137498000Y-46213000D03*
X140038000Y-48753000D03*
X140038000Y-46213000D03*
X142578000Y-48753000D03*
X142578000Y-46213000D03*
X145118000Y-48753000D03*
X145118000Y-46213000D03*
D32*
X156600000Y-92700000D03*
X156040000Y-52055000D03*
X156040000Y-45705000D03*
X104700000Y-78000000D03*
X137500000Y-104200000D03*
X168560000Y-101000000D03*
X177630000Y-77000000D03*
X171500000Y-67168000D03*
X154897000Y-70343000D03*
X141435000Y-83932000D03*
X143340000Y-78090000D03*
X109000000Y-83615300D03*
X114500000Y-78010000D03*
X132339100Y-73000000D03*
X133561000Y-70000000D03*
X139000000Y-51000000D03*
X130000000Y-60000000D03*
X151937900Y-58000000D03*
X151937900Y-53500000D03*
X151937900Y-51500000D03*
X131529000Y-66279000D03*
X147150000Y-53960000D03*
X143340000Y-53960000D03*
D33*
X109050000Y-74280000D02*
X109050000Y-66000000D01*
X112225000Y-62850000D02*
X112200000Y-62850000D01*
X112200000Y-62850000D02*
X109050000Y-66000000D01*
X151638264Y-56881000D02*
X145745011Y-56881000D01*
X134958000Y-44562000D02*
X134958000Y-46213000D01*
X112225000Y-62850000D02*
X128862000Y-46213000D01*
X128862000Y-46213000D02*
X128887400Y-46213000D01*
X128887400Y-46213000D02*
X130538400Y-44562000D01*
X130538400Y-44562000D02*
X134958000Y-44562000D01*
X134958000Y-44562000D02*
X136355000Y-43165000D01*
X136355000Y-43165000D02*
X153500000Y-43165000D01*
X153500000Y-43165000D02*
X156040000Y-45705000D01*
X95200000Y-95000000D02*
X109400000Y-109200000D01*
X109400000Y-109200000D02*
X175200000Y-109200000D01*
X95200000Y-76340000D02*
X95200000Y-95000000D01*
X99500000Y-74040000D02*
X97500000Y-74040000D01*
X97500000Y-74040000D02*
X95200000Y-76340000D01*
X179005000Y-97105000D02*
X179005000Y-105385000D01*
X179005000Y-105385000D02*
X179010000Y-105390000D01*
X178900000Y-92500000D02*
X178900000Y-93295000D01*
X178900000Y-93295000D02*
X176995000Y-95200000D01*
X176619999Y-90219999D02*
X178900000Y-92500000D01*
X173820000Y-89520000D02*
X174519999Y-90219999D01*
X174519999Y-90219999D02*
X176619999Y-90219999D01*
X155220000Y-95180000D02*
X153600000Y-96800000D01*
X153600000Y-96800000D02*
X153600000Y-106000000D01*
X157210000Y-95180000D02*
X155220000Y-95180000D01*
X155012474Y-91112474D02*
X156637423Y-92737423D01*
X153500000Y-89600000D02*
X155050051Y-91150051D01*
X99175000Y-74040000D02*
X99500000Y-74040000D01*
X179010000Y-105390000D02*
X175200000Y-109200000D01*
X177100000Y-95200000D02*
X179005000Y-97105000D01*
X145745011Y-56881000D02*
X145745011Y-56880000D01*
X156040000Y-52055000D02*
X156040000Y-52479264D01*
X156040000Y-52479264D02*
X151638264Y-56881000D01*
X117940000Y-73010000D02*
X117940000Y-67930000D01*
X109050000Y-74280000D02*
X116670000Y-74280000D01*
X116670000Y-74280000D02*
X117940000Y-73010000D01*
X99500000Y-74040000D02*
X108810000Y-74040000D01*
X108810000Y-74040000D02*
X109050000Y-74280000D01*
X176995000Y-95200000D02*
X157310000Y-95200000D01*
X181440000Y-73010000D02*
X181440000Y-81900000D01*
X181440000Y-81900000D02*
X173820000Y-89520000D01*
D34*
X181440000Y-73010000D02*
X181440000Y-74260000D01*
D35*
X104700000Y-78000000D02*
X107830000Y-78000000D01*
X99500000Y-78000000D02*
X104700000Y-78000000D01*
X137500000Y-104200000D02*
X137500000Y-106030000D01*
X137500000Y-102000000D02*
X137500000Y-104200000D01*
X168560000Y-101000000D02*
X168560000Y-103040000D01*
X168560000Y-98990000D02*
X168560000Y-101000000D01*
X177630000Y-77000000D02*
X177630000Y-81900000D01*
X177630000Y-72375000D02*
X177630000Y-77000000D01*
X171500000Y-67168000D02*
X179789000Y-67168000D01*
X156929000Y-67168000D02*
X171500000Y-67168000D01*
D36*
X109000000Y-83615300D02*
X110383500Y-84998800D01*
X107310100Y-81925400D02*
X109000000Y-83615300D01*
D35*
X114500000Y-78010000D02*
X117940000Y-78010000D01*
X110280000Y-78010000D02*
X114500000Y-78010000D01*
D36*
X112288500Y-94511100D02*
X112987000Y-94511100D01*
D34*
X112987000Y-94511100D02*
X113012400Y-94485700D01*
D36*
X110383500Y-92606100D02*
X112288500Y-94511100D01*
X110383500Y-84998800D02*
X110383500Y-92606100D01*
X101284600Y-81925400D02*
X107310100Y-81925400D01*
X99500000Y-81960000D02*
X101250000Y-81960000D01*
D34*
X101250000Y-81960000D02*
X101284600Y-81925400D01*
X168560000Y-103040000D02*
X168390000Y-103210000D01*
D35*
X140038000Y-46213000D02*
X138835919Y-46213000D01*
X138835919Y-46213000D02*
X137498000Y-46213000D01*
D34*
X142578000Y-46213000D02*
X141375919Y-46213000D01*
D35*
X141375919Y-46213000D02*
X140038000Y-46213000D01*
X145118000Y-46213000D02*
X142578000Y-46213000D01*
X168390000Y-103210000D02*
X167200000Y-104400000D01*
X179408000Y-70597000D02*
X177630000Y-72375000D01*
X179763000Y-70597000D02*
X179408000Y-70597000D01*
X181440000Y-70470000D02*
X179890000Y-70470000D01*
D34*
X179890000Y-70470000D02*
X179763000Y-70597000D01*
D35*
X148801000Y-74200000D02*
X149932370Y-74200000D01*
D34*
X149932370Y-74200000D02*
X149979370Y-74153000D01*
D35*
X181440000Y-68819000D02*
X181440000Y-70470000D01*
X149979370Y-74153000D02*
X151087000Y-74153000D01*
X151087000Y-74153000D02*
X154897000Y-70343000D01*
X154897000Y-70343000D02*
X154897000Y-69200000D01*
X154897000Y-69200000D02*
X156929000Y-67168000D01*
X179789000Y-67168000D02*
X181440000Y-68819000D01*
X143340000Y-78090000D02*
X144911000Y-78090000D01*
X144911000Y-78090000D02*
X148801000Y-74200000D01*
X141435000Y-83932000D02*
X140000000Y-85367000D01*
X140000000Y-85367000D02*
X140000000Y-87500000D01*
X144864000Y-83932000D02*
X141435000Y-83932000D01*
X146096001Y-82699999D02*
X144864000Y-83932000D01*
X147150000Y-81900000D02*
X146350001Y-82699999D01*
X146350001Y-82699999D02*
X146096001Y-82699999D01*
X130640000Y-74280000D02*
X134450000Y-78090000D01*
X134450000Y-78090000D02*
X143340000Y-78090000D01*
X143340000Y-78090000D02*
X147150000Y-81900000D01*
D36*
X131529000Y-66279000D02*
X134284000Y-66279000D01*
D34*
X134284000Y-66279000D02*
X134285000Y-66280000D01*
D35*
X109050000Y-76780000D02*
X110280000Y-78010000D01*
X107830000Y-78000000D02*
X109050000Y-76780000D01*
X99500000Y-81960000D02*
X99500000Y-78000000D01*
D34*
X144102000Y-70263000D02*
X142498000Y-70263000D01*
X148801000Y-69200000D02*
X145165000Y-69200000D01*
X145165000Y-69200000D02*
X144102000Y-70263000D01*
X142498000Y-70263000D02*
X141905000Y-69670000D01*
X141905000Y-69670000D02*
X141905000Y-66280000D01*
X142498000Y-71867000D02*
X142498000Y-70263000D01*
X137498000Y-71867000D02*
X133227000Y-71867000D01*
X133227000Y-71867000D02*
X130640000Y-69280000D01*
X140673000Y-68692000D02*
X140635000Y-68654000D01*
X140635000Y-68654000D02*
X140635000Y-66280000D01*
X137498000Y-71867000D02*
X140673000Y-68692000D01*
X161120000Y-89520000D02*
X161120000Y-92380000D01*
X161120000Y-92380000D02*
X161100000Y-92400000D01*
X152150000Y-81900000D02*
X152150000Y-83031370D01*
X152150000Y-83031370D02*
X152383629Y-83264999D01*
X152383629Y-83264999D02*
X159944999Y-83264999D01*
X159944999Y-83264999D02*
X160270001Y-83590001D01*
X160270001Y-83590001D02*
X161120000Y-84440000D01*
X161120000Y-84440000D02*
X162484999Y-83075001D01*
X162484999Y-83075001D02*
X164835001Y-83075001D01*
X164835001Y-83075001D02*
X165350001Y-83590001D01*
X165350001Y-83590001D02*
X166200000Y-84440000D01*
X161120000Y-89520000D02*
X161120000Y-84440000D01*
X166200000Y-89520000D02*
X166200000Y-92380000D01*
X166200000Y-92380000D02*
X166180000Y-92400000D01*
X166200000Y-89520000D02*
X166200000Y-88330000D01*
X166200000Y-88330000D02*
X172630000Y-81900000D01*
X164930000Y-89520000D02*
X163660000Y-88250000D01*
X163660000Y-88250000D02*
X163660000Y-84440000D01*
X166200000Y-89520000D02*
X164930000Y-89520000D01*
X142500000Y-106030000D02*
X145950000Y-106030000D01*
X145950000Y-106030000D02*
X145980000Y-106000000D01*
X142500000Y-102000000D02*
X142500000Y-100480000D01*
X142500000Y-100480000D02*
X136314990Y-94294990D01*
X136314990Y-94294990D02*
X136314990Y-91384990D01*
X128735000Y-68565000D02*
X129370000Y-67930000D01*
X136314990Y-91384990D02*
X128735000Y-83805000D01*
X128735000Y-83805000D02*
X128735000Y-68565000D01*
X129370000Y-67930000D02*
X137120000Y-67930000D01*
X137120000Y-67930000D02*
X138095000Y-66955000D01*
X138095000Y-66955000D02*
X138095000Y-66280000D01*
X142500000Y-102000000D02*
X142500000Y-103520000D01*
X142500000Y-103520000D02*
X142500000Y-106030000D01*
X157210000Y-102800000D02*
X157210000Y-105400000D01*
X131730000Y-107800000D02*
X127465000Y-103535000D01*
X129370000Y-64120000D02*
X137880000Y-64120000D01*
X157210000Y-105400000D02*
X154810000Y-107800000D01*
X154810000Y-107800000D02*
X131730000Y-107800000D01*
X139365000Y-65605000D02*
X139365000Y-66280000D01*
X127465000Y-103535000D02*
X127465000Y-66025000D01*
X127465000Y-66025000D02*
X129370000Y-64120000D01*
X137880000Y-64120000D02*
X139365000Y-65605000D01*
X163560000Y-98990000D02*
X164560000Y-99990000D01*
X164560000Y-99990000D02*
X164560000Y-104400000D01*
X157210000Y-102800000D02*
X159750000Y-102800000D01*
X159750000Y-102800000D02*
X163560000Y-98990000D01*
D33*
X99588500Y-90053400D02*
X102090400Y-92555300D01*
X102090400Y-92555300D02*
X104782800Y-92555300D01*
X99588500Y-87433500D02*
X99588500Y-90053400D01*
X99500000Y-85920000D02*
X99500000Y-87345000D01*
D34*
X99500000Y-87345000D02*
X99588500Y-87433500D01*
X163660000Y-81900000D02*
X164862081Y-81900000D01*
X164862081Y-81900000D02*
X166200000Y-81900000D01*
X163660000Y-70470000D02*
X163660000Y-71459949D01*
X163660000Y-71459949D02*
X163660000Y-81900000D01*
X158580000Y-81900000D02*
X159782081Y-81900000D01*
X159782081Y-81900000D02*
X161120000Y-81900000D01*
X158580000Y-70470000D02*
X158580000Y-71459949D01*
X158580000Y-71459949D02*
X158580000Y-81900000D01*
D33*
X117901900Y-100688100D02*
X117901900Y-96835200D01*
X117901900Y-96835200D02*
X115552400Y-94485700D01*
X115740000Y-104400000D02*
X115740000Y-102850000D01*
X115740000Y-102850000D02*
X117901900Y-100688100D01*
D34*
X142070000Y-59675000D02*
X140635000Y-58240000D01*
X140635000Y-58240000D02*
X140635000Y-56880000D01*
X165565000Y-59675000D02*
X142070000Y-59675000D01*
X168359000Y-62469000D02*
X165565000Y-59675000D01*
X179489000Y-62469000D02*
X168359000Y-62469000D01*
X181440000Y-64120000D02*
X181140000Y-64120000D01*
X181140000Y-64120000D02*
X179489000Y-62469000D01*
X166073000Y-58913000D02*
X143263000Y-58913000D01*
X143263000Y-58913000D02*
X141905000Y-57555000D01*
X141905000Y-57555000D02*
X141905000Y-56880000D01*
X168740000Y-61580000D02*
X166073000Y-58913000D01*
X181440000Y-61580000D02*
X168740000Y-61580000D01*
X141181000Y-53833000D02*
X141905000Y-54557000D01*
X141905000Y-54557000D02*
X141905000Y-56880000D01*
X134958000Y-53833000D02*
X141181000Y-53833000D01*
X134958000Y-48753000D02*
X134958000Y-53833000D01*
X147150000Y-53960000D02*
X147150000Y-50785000D01*
X147150000Y-50785000D02*
X145118000Y-48753000D01*
X143175000Y-56880000D02*
X143175000Y-54125000D01*
X143175000Y-54125000D02*
X143340000Y-53960000D01*
X166327000Y-51420000D02*
X163660000Y-48753000D01*
X163660000Y-48753000D02*
X145118000Y-48753000D01*
X177630000Y-51420000D02*
X166327000Y-51420000D01*
X178773000Y-52563000D02*
X177630000Y-51420000D01*
X178773000Y-59040000D02*
X178773000Y-52563000D01*
X181440000Y-59040000D02*
X178773000Y-59040000D01*
X143175000Y-57555000D02*
X143175000Y-56880000D01*
X178900000Y-50150000D02*
X181440000Y-52690000D01*
X181440000Y-52690000D02*
X181440000Y-56500000D01*
X167470000Y-50150000D02*
X178900000Y-50150000D01*
X164897999Y-47577999D02*
X167470000Y-50150000D01*
X143427999Y-47776001D02*
X143626001Y-47577999D01*
X143626001Y-47577999D02*
X164897999Y-47577999D01*
X142578000Y-48753000D02*
X143427999Y-47903001D01*
X143427999Y-47903001D02*
X143427999Y-47776001D01*
X142578000Y-48753000D02*
X144445000Y-50620000D01*
X144445000Y-50620000D02*
X144445000Y-55655000D01*
X144445000Y-55655000D02*
X144445000Y-56880000D01*
X125433000Y-72883000D02*
X125433000Y-79760000D01*
X125433000Y-79760000D02*
X114282400Y-90910600D01*
X114282400Y-90910600D02*
X114282400Y-93215700D01*
X117940000Y-60310000D02*
X130672001Y-47577999D01*
X130672001Y-47577999D02*
X130710101Y-47577999D01*
X139188001Y-47903001D02*
X140038000Y-48753000D01*
X130710101Y-47577999D02*
X130800099Y-47488001D01*
X130800099Y-47488001D02*
X138773001Y-47488001D01*
X138773001Y-47488001D02*
X139188001Y-47903001D01*
X144610000Y-62850000D02*
X120480000Y-62850000D01*
X120480000Y-62850000D02*
X117940000Y-60310000D01*
X145715000Y-63955000D02*
X144610000Y-62850000D01*
X145715000Y-66280000D02*
X145715000Y-63955000D01*
X163660000Y-62850000D02*
X161628000Y-64882000D01*
X161628000Y-64882000D02*
X155278000Y-64882000D01*
X155278000Y-64882000D02*
X151976000Y-61580000D01*
X151976000Y-61580000D02*
X136990000Y-61580000D01*
X136990000Y-61580000D02*
X135555000Y-60145000D01*
X135555000Y-60145000D02*
X135555000Y-56880000D01*
X138641000Y-60564000D02*
X136825000Y-58748000D01*
X136825000Y-58748000D02*
X136825000Y-56880000D01*
X153500000Y-60564000D02*
X138641000Y-60564000D01*
X157310000Y-60590051D02*
X153526051Y-60590051D01*
X153526051Y-60590051D02*
X153500000Y-60564000D01*
X158580000Y-62850000D02*
X158580000Y-61860051D01*
X158580000Y-61860051D02*
X157310000Y-60590051D01*
X152780001Y-90980001D02*
X149300000Y-87500000D01*
X149300000Y-87500000D02*
X147670000Y-87500000D01*
X153480000Y-92400000D02*
X152780001Y-91700001D01*
X152780001Y-91700001D02*
X152780001Y-90980001D01*
X147670000Y-87500000D02*
X142500000Y-87500000D01*
X125433000Y-65263000D02*
X127211000Y-63485000D01*
X144445000Y-64590000D02*
X144445000Y-66280000D01*
X127211000Y-63485000D02*
X143340000Y-63485000D01*
X143340000Y-63485000D02*
X144445000Y-64590000D01*
X144445000Y-65605000D02*
X144445000Y-66280000D01*
X173800000Y-92400000D02*
X172700000Y-92400000D01*
X171200000Y-93900000D02*
X149625000Y-93900000D01*
X172700000Y-92400000D02*
X171200000Y-93900000D01*
X149625000Y-93900000D02*
X146515000Y-90790000D01*
X146515000Y-90790000D02*
X138260000Y-90790000D01*
X138260000Y-90790000D02*
X137500000Y-90030000D01*
X137500000Y-90030000D02*
X137500000Y-87500000D01*
D33*
X104782800Y-100175300D02*
X104782800Y-101165249D01*
X104782800Y-101165249D02*
X108017551Y-104400000D01*
X108017551Y-104400000D02*
X111950000Y-104400000D01*
X111950000Y-104400000D02*
X113200000Y-104400000D01*
D37*
G36*
X107330485Y-41746950D02*
X106250741Y-42824811D01*
X105665667Y-44233825D01*
X105664336Y-45759482D01*
X106246950Y-47169515D01*
X107324811Y-48249259D01*
X108733825Y-48834333D01*
X110259482Y-48835664D01*
X111669515Y-48253050D01*
X112749259Y-47175189D01*
X113334333Y-45766175D01*
X113335664Y-44240518D01*
X112753050Y-42830485D01*
X111675189Y-41750741D01*
X111377188Y-41627000D01*
X168620786Y-41627000D01*
X168330485Y-41746950D01*
X167250741Y-42824811D01*
X166665667Y-44233825D01*
X166664336Y-45759482D01*
X167246950Y-47169515D01*
X168324811Y-48249259D01*
X169733825Y-48834333D01*
X171259482Y-48835664D01*
X172669515Y-48253050D01*
X173749259Y-47175189D01*
X174334333Y-45766175D01*
X174335664Y-44240518D01*
X173753050Y-42830485D01*
X172675189Y-41750741D01*
X172377188Y-41627000D01*
X183120786Y-41627000D01*
X182830485Y-41746950D01*
X181750741Y-42824811D01*
X181165667Y-44233825D01*
X181164336Y-45759482D01*
X181746950Y-47169515D01*
X182824811Y-48249259D01*
X184233825Y-48834333D01*
X185759482Y-48835664D01*
X187169515Y-48253050D01*
X188249259Y-47175189D01*
X188373000Y-46877188D01*
X188373000Y-104423730D01*
X188253050Y-104133429D01*
X187175189Y-103053685D01*
X185766175Y-102468611D01*
X184240518Y-102467280D01*
X182830485Y-103049894D01*
X181750741Y-104127755D01*
X181165667Y-105536769D01*
X181164336Y-107062426D01*
X181746950Y-108472459D01*
X182824811Y-109552203D01*
X183597376Y-109873000D01*
X175755135Y-109873000D01*
X175825790Y-109825790D01*
X179635790Y-106015789D01*
X179827633Y-105728674D01*
X179895001Y-105390000D01*
X179890000Y-105364859D01*
X179890000Y-97105005D01*
X179890001Y-97105000D01*
X179822633Y-96766326D01*
X179822633Y-96766325D01*
X179630790Y-96479210D01*
X179630787Y-96479208D01*
X178299080Y-95147500D01*
X179525787Y-93920792D01*
X179525790Y-93920790D01*
X179717633Y-93633675D01*
X179737263Y-93534990D01*
X179785001Y-93295000D01*
X179785000Y-93294995D01*
X179785000Y-92500000D01*
X179717633Y-92161325D01*
X179525790Y-91874210D01*
X179525787Y-91874208D01*
X177245789Y-89594209D01*
X176958674Y-89402366D01*
X176902483Y-89391189D01*
X176619999Y-89334998D01*
X176619994Y-89334999D01*
X175256581Y-89334999D01*
X182065787Y-82525792D01*
X182065790Y-82525790D01*
X182257633Y-82238675D01*
X182325000Y-81900000D01*
X182325000Y-74657440D01*
X182740000Y-74657440D01*
X182975317Y-74613162D01*
X183191441Y-74474090D01*
X183336431Y-74261890D01*
X183387440Y-74010000D01*
X183387440Y-72010000D01*
X183343162Y-71774683D01*
X183204090Y-71558559D01*
X183037380Y-71444651D01*
X183299144Y-70978355D01*
X183330124Y-70850434D01*
X183210777Y-70597000D01*
X181567000Y-70597000D01*
X181567000Y-70617000D01*
X181313000Y-70617000D01*
X181313000Y-70597000D01*
X179669223Y-70597000D01*
X179549876Y-70850434D01*
X179580856Y-70978355D01*
X179843495Y-71446211D01*
X179688559Y-71545910D01*
X179543569Y-71758110D01*
X179492560Y-72010000D01*
X179492560Y-74010000D01*
X179536838Y-74245317D01*
X179675910Y-74461441D01*
X179888110Y-74606431D01*
X180140000Y-74657440D01*
X180555000Y-74657440D01*
X180555000Y-81533421D01*
X173893919Y-88194501D01*
X173846154Y-88185000D01*
X173793846Y-88185000D01*
X173282964Y-88286621D01*
X172849858Y-88576012D01*
X172560467Y-89009118D01*
X172458846Y-89520000D01*
X172560467Y-90030882D01*
X172849858Y-90463988D01*
X173282964Y-90753379D01*
X173793846Y-90855000D01*
X173846154Y-90855000D01*
X173893920Y-90845499D01*
X173894207Y-90845786D01*
X173894209Y-90845789D01*
X174095073Y-90980001D01*
X174181324Y-91037632D01*
X174519999Y-91105000D01*
X174520004Y-91104999D01*
X176253419Y-91104999D01*
X178015000Y-92866579D01*
X178015000Y-92928421D01*
X176628420Y-94315000D01*
X171859802Y-94315000D01*
X172843424Y-93331378D01*
X173042796Y-93531098D01*
X173533287Y-93734768D01*
X174064383Y-93735231D01*
X174555229Y-93532418D01*
X174931098Y-93157204D01*
X175134768Y-92666713D01*
X175135231Y-92135617D01*
X174932418Y-91644771D01*
X174557204Y-91268902D01*
X174066713Y-91065232D01*
X173535617Y-91064769D01*
X173044771Y-91267582D01*
X172668902Y-91642796D01*
X172667368Y-91646491D01*
X172409160Y-91697852D01*
X172162599Y-91862599D01*
X170885198Y-93140000D01*
X167286442Y-93140000D01*
X167439533Y-92910882D01*
X167541154Y-92400000D01*
X167439533Y-91889118D01*
X167150142Y-91456012D01*
X166960000Y-91328964D01*
X166960000Y-90647655D01*
X167331098Y-90277204D01*
X167534768Y-89786713D01*
X167535231Y-89255617D01*
X167332418Y-88764771D01*
X167086439Y-88518363D01*
X172291546Y-83313256D01*
X172343309Y-83334750D01*
X172914187Y-83335248D01*
X173441800Y-83117243D01*
X173651663Y-82907745D01*
X176801861Y-82907745D01*
X176875995Y-83153864D01*
X177413223Y-83346965D01*
X177983454Y-83319778D01*
X178384005Y-83153864D01*
X178458139Y-82907745D01*
X177630000Y-82079605D01*
X176801861Y-82907745D01*
X173651663Y-82907745D01*
X173845824Y-82713923D01*
X174064750Y-82186691D01*
X174065189Y-81683223D01*
X176183035Y-81683223D01*
X176210222Y-82253454D01*
X176376136Y-82654005D01*
X176622255Y-82728139D01*
X177450395Y-81900000D01*
X177809605Y-81900000D01*
X178637745Y-82728139D01*
X178883864Y-82654005D01*
X179076965Y-82116777D01*
X179049778Y-81546546D01*
X178883864Y-81145995D01*
X178637745Y-81071861D01*
X177809605Y-81900000D01*
X177450395Y-81900000D01*
X176622255Y-81071861D01*
X176376136Y-81145995D01*
X176183035Y-81683223D01*
X174065189Y-81683223D01*
X174065248Y-81615813D01*
X173847243Y-81088200D01*
X173651640Y-80892255D01*
X176801861Y-80892255D01*
X177630000Y-81720395D01*
X178458139Y-80892255D01*
X178384005Y-80646136D01*
X177846777Y-80453035D01*
X177276546Y-80480222D01*
X176875995Y-80646136D01*
X176801861Y-80892255D01*
X173651640Y-80892255D01*
X173443923Y-80684176D01*
X172916691Y-80465250D01*
X172345813Y-80464752D01*
X171818200Y-80682757D01*
X171414176Y-81086077D01*
X171195250Y-81613309D01*
X171194752Y-82184187D01*
X171217049Y-82238149D01*
X165662599Y-87792599D01*
X165497852Y-88039161D01*
X165440000Y-88330000D01*
X165440000Y-88392345D01*
X165158328Y-88673526D01*
X164420000Y-87935198D01*
X164420000Y-85712954D01*
X164710054Y-85519147D01*
X164930000Y-85189974D01*
X165149946Y-85519147D01*
X165631715Y-85841054D01*
X166200000Y-85954093D01*
X166768285Y-85841054D01*
X167250054Y-85519147D01*
X167571961Y-85037378D01*
X167685000Y-84469093D01*
X167685000Y-84410907D01*
X167571961Y-83842622D01*
X167250054Y-83360853D01*
X167248821Y-83360029D01*
X167285317Y-83353162D01*
X167501441Y-83214090D01*
X167646431Y-83001890D01*
X167697440Y-82750000D01*
X167697440Y-81050000D01*
X167653162Y-80814683D01*
X167514090Y-80598559D01*
X167301890Y-80453569D01*
X167050000Y-80402560D01*
X165350000Y-80402560D01*
X165114683Y-80446838D01*
X164898559Y-80585910D01*
X164753569Y-80798110D01*
X164739914Y-80865541D01*
X164710054Y-80820853D01*
X164420000Y-80627046D01*
X164420000Y-71563078D01*
X164603988Y-71440142D01*
X164893379Y-71007036D01*
X164995000Y-70496154D01*
X164995000Y-70443846D01*
X164924530Y-70089566D01*
X179549876Y-70089566D01*
X179669223Y-70343000D01*
X181313000Y-70343000D01*
X181313000Y-68835000D01*
X181567000Y-68835000D01*
X181567000Y-70343000D01*
X183210777Y-70343000D01*
X183330124Y-70089566D01*
X183299144Y-69961645D01*
X182985922Y-69403683D01*
X182483020Y-69008058D01*
X181867000Y-68835000D01*
X181567000Y-68835000D01*
X181313000Y-68835000D01*
X181013000Y-68835000D01*
X180396980Y-69008058D01*
X179894078Y-69403683D01*
X179580856Y-69961645D01*
X179549876Y-70089566D01*
X164924530Y-70089566D01*
X164893379Y-69932964D01*
X164603988Y-69499858D01*
X164170882Y-69210467D01*
X163660000Y-69108846D01*
X163149118Y-69210467D01*
X162716012Y-69499858D01*
X162426621Y-69932964D01*
X162325000Y-70443846D01*
X162325000Y-70496154D01*
X162426621Y-71007036D01*
X162716012Y-71440142D01*
X162900000Y-71563078D01*
X162900000Y-80627046D01*
X162609946Y-80820853D01*
X162390000Y-81150026D01*
X162170054Y-80820853D01*
X161688285Y-80498946D01*
X161120000Y-80385907D01*
X160551715Y-80498946D01*
X160069946Y-80820853D01*
X159856699Y-81140000D01*
X159843301Y-81140000D01*
X159630054Y-80820853D01*
X159340000Y-80627046D01*
X159340000Y-71563078D01*
X159523988Y-71440142D01*
X159813379Y-71007036D01*
X159915000Y-70496154D01*
X159915000Y-70443846D01*
X159813379Y-69932964D01*
X159523988Y-69499858D01*
X159090882Y-69210467D01*
X158580000Y-69108846D01*
X158069118Y-69210467D01*
X157636012Y-69499858D01*
X157346621Y-69932964D01*
X157245000Y-70443846D01*
X157245000Y-70496154D01*
X157346621Y-71007036D01*
X157636012Y-71440142D01*
X157820000Y-71563078D01*
X157820000Y-80627046D01*
X157529946Y-80820853D01*
X157208039Y-81302622D01*
X157095000Y-81870907D01*
X157095000Y-81929093D01*
X157208039Y-82497378D01*
X157213131Y-82504999D01*
X153452577Y-82504999D01*
X153584750Y-82186691D01*
X153585248Y-81615813D01*
X153367243Y-81088200D01*
X152963923Y-80684176D01*
X152436691Y-80465250D01*
X151865813Y-80464752D01*
X151338200Y-80682757D01*
X150934176Y-81086077D01*
X150715250Y-81613309D01*
X150714752Y-82184187D01*
X150932757Y-82711800D01*
X151336077Y-83115824D01*
X151413166Y-83147834D01*
X151447852Y-83322209D01*
X151612599Y-83568771D01*
X151846228Y-83802400D01*
X152092789Y-83967147D01*
X152383629Y-84024999D01*
X157171762Y-84024999D01*
X157095000Y-84410907D01*
X157095000Y-84469093D01*
X157208039Y-85037378D01*
X157529946Y-85519147D01*
X158011715Y-85841054D01*
X158580000Y-85954093D01*
X159148285Y-85841054D01*
X159630054Y-85519147D01*
X159850000Y-85189974D01*
X160069946Y-85519147D01*
X160360000Y-85712954D01*
X160360000Y-88392345D01*
X159988902Y-88762796D01*
X159785232Y-89253287D01*
X159784769Y-89784383D01*
X159987582Y-90275229D01*
X160360000Y-90648297D01*
X160360000Y-91302237D01*
X160129858Y-91456012D01*
X159840467Y-91889118D01*
X159738846Y-92400000D01*
X159840467Y-92910882D01*
X159993558Y-93140000D01*
X157429699Y-93140000D01*
X157534838Y-92886799D01*
X157535162Y-92514833D01*
X157393117Y-92171057D01*
X157130327Y-91907808D01*
X157009013Y-91857434D01*
X155638264Y-90486684D01*
X155638261Y-90486682D01*
X154829702Y-89678122D01*
X154861154Y-89520000D01*
X154759533Y-89009118D01*
X154470142Y-88576012D01*
X154037036Y-88286621D01*
X153526154Y-88185000D01*
X153473846Y-88185000D01*
X152962964Y-88286621D01*
X152529858Y-88576012D01*
X152240467Y-89009118D01*
X152181312Y-89306510D01*
X149837401Y-86962599D01*
X149590839Y-86797852D01*
X149300000Y-86740000D01*
X143932804Y-86740000D01*
X143881200Y-86480567D01*
X143557125Y-85995554D01*
X143072112Y-85671479D01*
X142500000Y-85557679D01*
X141927888Y-85671479D01*
X141442875Y-85995554D01*
X141245309Y-86291232D01*
X140967322Y-85943073D01*
X140454779Y-85660200D01*
X140358461Y-85638611D01*
X140127000Y-85759799D01*
X140127000Y-87373000D01*
X140147000Y-87373000D01*
X140147000Y-87627000D01*
X140127000Y-87627000D01*
X140127000Y-89240201D01*
X140358461Y-89361389D01*
X140454779Y-89339800D01*
X140967322Y-89056927D01*
X141245309Y-88708768D01*
X141442875Y-89004446D01*
X141927888Y-89328521D01*
X142500000Y-89442321D01*
X143072112Y-89328521D01*
X143557125Y-89004446D01*
X143881200Y-88519433D01*
X143932804Y-88260000D01*
X148985198Y-88260000D01*
X152020001Y-91294803D01*
X152020001Y-91700001D01*
X152077853Y-91990840D01*
X152155887Y-92107627D01*
X152145232Y-92133287D01*
X152144769Y-92664383D01*
X152341290Y-93140000D01*
X149939802Y-93140000D01*
X147052401Y-90252599D01*
X146805839Y-90087852D01*
X146515000Y-90030000D01*
X138574802Y-90030000D01*
X138260000Y-89715198D01*
X138260000Y-89202978D01*
X138557125Y-89004446D01*
X138754691Y-88708768D01*
X139032678Y-89056927D01*
X139545221Y-89339800D01*
X139641539Y-89361389D01*
X139873000Y-89240201D01*
X139873000Y-87627000D01*
X139853000Y-87627000D01*
X139853000Y-87373000D01*
X139873000Y-87373000D01*
X139873000Y-85759799D01*
X139641539Y-85638611D01*
X139545221Y-85660200D01*
X139032678Y-85943073D01*
X138754691Y-86291232D01*
X138557125Y-85995554D01*
X138072112Y-85671479D01*
X137500000Y-85557679D01*
X136927888Y-85671479D01*
X136442875Y-85995554D01*
X136118800Y-86480567D01*
X136005000Y-87052679D01*
X136005000Y-87947321D01*
X136118800Y-88519433D01*
X136442875Y-89004446D01*
X136740000Y-89202978D01*
X136740000Y-90030000D01*
X136797852Y-90320839D01*
X136962599Y-90567401D01*
X137722599Y-91327401D01*
X137969160Y-91492148D01*
X138260000Y-91550000D01*
X146200198Y-91550000D01*
X149087599Y-94437401D01*
X149334160Y-94602148D01*
X149625000Y-94660000D01*
X154488421Y-94660000D01*
X152974210Y-96174210D01*
X152782367Y-96461325D01*
X152778809Y-96479211D01*
X152714999Y-96800000D01*
X152715000Y-96800005D01*
X152715000Y-104997127D01*
X152468902Y-105242796D01*
X152265232Y-105733287D01*
X152264769Y-106264383D01*
X152467582Y-106755229D01*
X152751857Y-107040000D01*
X146806449Y-107040000D01*
X146950142Y-106943988D01*
X147239533Y-106510882D01*
X147341154Y-106000000D01*
X147239533Y-105489118D01*
X146950142Y-105056012D01*
X146517036Y-104766621D01*
X146006154Y-104665000D01*
X145953846Y-104665000D01*
X145442964Y-104766621D01*
X145009858Y-105056012D01*
X144866876Y-105270000D01*
X143738646Y-105270000D01*
X143717243Y-105218200D01*
X143313923Y-104814176D01*
X143260000Y-104791785D01*
X143260000Y-103702978D01*
X143557125Y-103504446D01*
X143881200Y-103019433D01*
X143995000Y-102447321D01*
X143995000Y-101552679D01*
X143881200Y-100980567D01*
X143557125Y-100495554D01*
X143218024Y-100268974D01*
X143202148Y-100189161D01*
X143037401Y-99942599D01*
X137074990Y-93980188D01*
X137074990Y-93600000D01*
X143752560Y-93600000D01*
X143752560Y-96400000D01*
X143796838Y-96635317D01*
X143935910Y-96851441D01*
X144148110Y-96996431D01*
X144400000Y-97047440D01*
X146800000Y-97047440D01*
X147035317Y-97003162D01*
X147251441Y-96864090D01*
X147396431Y-96651890D01*
X147447440Y-96400000D01*
X147447440Y-93600000D01*
X147403162Y-93364683D01*
X147264090Y-93148559D01*
X147051890Y-93003569D01*
X146800000Y-92952560D01*
X144400000Y-92952560D01*
X144164683Y-92996838D01*
X143948559Y-93135910D01*
X143803569Y-93348110D01*
X143752560Y-93600000D01*
X137074990Y-93600000D01*
X137074990Y-91384990D01*
X137017138Y-91094151D01*
X136852391Y-90847589D01*
X129495000Y-83490198D01*
X129495000Y-82907745D01*
X146321861Y-82907745D01*
X146395995Y-83153864D01*
X146933223Y-83346965D01*
X147503454Y-83319778D01*
X147904005Y-83153864D01*
X147978139Y-82907745D01*
X147150000Y-82079605D01*
X146321861Y-82907745D01*
X129495000Y-82907745D01*
X129495000Y-81683223D01*
X145703035Y-81683223D01*
X145730222Y-82253454D01*
X145896136Y-82654005D01*
X146142255Y-82728139D01*
X146970395Y-81900000D01*
X147329605Y-81900000D01*
X148157745Y-82728139D01*
X148403864Y-82654005D01*
X148596965Y-82116777D01*
X148569778Y-81546546D01*
X148403864Y-81145995D01*
X148157745Y-81071861D01*
X147329605Y-81900000D01*
X146970395Y-81900000D01*
X146142255Y-81071861D01*
X145896136Y-81145995D01*
X145703035Y-81683223D01*
X129495000Y-81683223D01*
X129495000Y-80892255D01*
X146321861Y-80892255D01*
X147150000Y-81720395D01*
X147978139Y-80892255D01*
X147904005Y-80646136D01*
X147366777Y-80453035D01*
X146796546Y-80480222D01*
X146395995Y-80646136D01*
X146321861Y-80892255D01*
X129495000Y-80892255D01*
X129495000Y-75287745D01*
X129811861Y-75287745D01*
X129885995Y-75533864D01*
X130423223Y-75726965D01*
X130993454Y-75699778D01*
X131394005Y-75533864D01*
X131468139Y-75287745D01*
X131388140Y-75207745D01*
X147972861Y-75207745D01*
X148046995Y-75453864D01*
X148584223Y-75646965D01*
X149154454Y-75619778D01*
X149555005Y-75453864D01*
X149629139Y-75207745D01*
X148801000Y-74379605D01*
X147972861Y-75207745D01*
X131388140Y-75207745D01*
X130640000Y-74459605D01*
X129811861Y-75287745D01*
X129495000Y-75287745D01*
X129495000Y-75066796D01*
X129632255Y-75108139D01*
X130460395Y-74280000D01*
X130819605Y-74280000D01*
X131647745Y-75108139D01*
X131893864Y-75034005D01*
X132086965Y-74496777D01*
X132062481Y-73983223D01*
X147354035Y-73983223D01*
X147381222Y-74553454D01*
X147547136Y-74954005D01*
X147793255Y-75028139D01*
X148621395Y-74200000D01*
X148980605Y-74200000D01*
X149808745Y-75028139D01*
X150054864Y-74954005D01*
X150247965Y-74416777D01*
X150220778Y-73846546D01*
X150054864Y-73445995D01*
X149808745Y-73371861D01*
X148980605Y-74200000D01*
X148621395Y-74200000D01*
X147793255Y-73371861D01*
X147547136Y-73445995D01*
X147354035Y-73983223D01*
X132062481Y-73983223D01*
X132059778Y-73926546D01*
X131893864Y-73525995D01*
X131647745Y-73451861D01*
X130819605Y-74280000D01*
X130460395Y-74280000D01*
X129632255Y-73451861D01*
X129495000Y-73493204D01*
X129495000Y-73272255D01*
X129811861Y-73272255D01*
X130640000Y-74100395D01*
X131468139Y-73272255D01*
X131394005Y-73026136D01*
X130856777Y-72833035D01*
X130286546Y-72860222D01*
X129885995Y-73026136D01*
X129811861Y-73272255D01*
X129495000Y-73272255D01*
X129495000Y-70164169D01*
X129826077Y-70495824D01*
X130353309Y-70714750D01*
X130924187Y-70715248D01*
X130978149Y-70692951D01*
X132689599Y-72404401D01*
X132936161Y-72569148D01*
X133227000Y-72627000D01*
X136313453Y-72627000D01*
X136323169Y-72650515D01*
X136712436Y-73040461D01*
X137221298Y-73251759D01*
X137772285Y-73252240D01*
X138281515Y-73041831D01*
X138671461Y-72652564D01*
X138882759Y-72143702D01*
X138883240Y-71592715D01*
X138872670Y-71567132D01*
X141145000Y-69294802D01*
X141145000Y-69670000D01*
X141202852Y-69960839D01*
X141367599Y-70207401D01*
X141738000Y-70577802D01*
X141738000Y-70682453D01*
X141714485Y-70692169D01*
X141324539Y-71081436D01*
X141113241Y-71590298D01*
X141112760Y-72141285D01*
X141323169Y-72650515D01*
X141712436Y-73040461D01*
X142221298Y-73251759D01*
X142772285Y-73252240D01*
X142917460Y-73192255D01*
X147972861Y-73192255D01*
X148801000Y-74020395D01*
X149629139Y-73192255D01*
X149555005Y-72946136D01*
X149017777Y-72753035D01*
X148447546Y-72780222D01*
X148046995Y-72946136D01*
X147972861Y-73192255D01*
X142917460Y-73192255D01*
X143281515Y-73041831D01*
X143671461Y-72652564D01*
X143882759Y-72143702D01*
X143883240Y-71592715D01*
X143672831Y-71083485D01*
X143612451Y-71023000D01*
X144102000Y-71023000D01*
X144392839Y-70965148D01*
X144639401Y-70800401D01*
X145479802Y-69960000D01*
X147562354Y-69960000D01*
X147583757Y-70011800D01*
X147987077Y-70415824D01*
X148514309Y-70634750D01*
X149085187Y-70635248D01*
X149612800Y-70417243D01*
X150016824Y-70013923D01*
X150235750Y-69486691D01*
X150236248Y-68915813D01*
X150018243Y-68388200D01*
X149614923Y-67984176D01*
X149087691Y-67765250D01*
X148516813Y-67764752D01*
X147989200Y-67982757D01*
X147585176Y-68386077D01*
X147562785Y-68440000D01*
X145165000Y-68440000D01*
X144874161Y-68497852D01*
X144627599Y-68662599D01*
X143787198Y-69503000D01*
X142812802Y-69503000D01*
X142665000Y-69355198D01*
X142665000Y-67859914D01*
X142875000Y-67902440D01*
X143475000Y-67902440D01*
X143710317Y-67858162D01*
X143809528Y-67794322D01*
X143893110Y-67851431D01*
X144145000Y-67902440D01*
X144745000Y-67902440D01*
X144980317Y-67858162D01*
X145079528Y-67794322D01*
X145163110Y-67851431D01*
X145415000Y-67902440D01*
X146015000Y-67902440D01*
X146250317Y-67858162D01*
X146466441Y-67719090D01*
X146611431Y-67506890D01*
X146662440Y-67255000D01*
X146662440Y-65305000D01*
X146618162Y-65069683D01*
X146479090Y-64853559D01*
X146475000Y-64850764D01*
X146475000Y-63955000D01*
X146417148Y-63664161D01*
X146252401Y-63417599D01*
X145174802Y-62340000D01*
X151661198Y-62340000D01*
X154740599Y-65419401D01*
X154987160Y-65584148D01*
X155278000Y-65642000D01*
X161628000Y-65642000D01*
X161918839Y-65584148D01*
X162165401Y-65419401D01*
X163400028Y-64184774D01*
X163924383Y-64185231D01*
X164415229Y-63982418D01*
X164791098Y-63607204D01*
X164994768Y-63116713D01*
X164995231Y-62585617D01*
X164792418Y-62094771D01*
X164417204Y-61718902D01*
X163926713Y-61515232D01*
X163395617Y-61514769D01*
X162904771Y-61717582D01*
X162528902Y-62092796D01*
X162325232Y-62583287D01*
X162324772Y-63110426D01*
X161313198Y-64122000D01*
X158997414Y-64122000D01*
X159335229Y-63982418D01*
X159711098Y-63607204D01*
X159914768Y-63116713D01*
X159915231Y-62585617D01*
X159712418Y-62094771D01*
X159337204Y-61718902D01*
X159309647Y-61707460D01*
X159282148Y-61569211D01*
X159117401Y-61322650D01*
X158229751Y-60435000D01*
X165250198Y-60435000D01*
X167821599Y-63006401D01*
X168068161Y-63171148D01*
X168359000Y-63229000D01*
X179174198Y-63229000D01*
X179492560Y-63547362D01*
X179492560Y-65120000D01*
X179536838Y-65355317D01*
X179675910Y-65571441D01*
X179888110Y-65716431D01*
X180140000Y-65767440D01*
X182740000Y-65767440D01*
X182975317Y-65723162D01*
X183191441Y-65584090D01*
X183336431Y-65371890D01*
X183387440Y-65120000D01*
X183387440Y-63120000D01*
X183343162Y-62884683D01*
X183204090Y-62668559D01*
X183049671Y-62563049D01*
X183288452Y-62205687D01*
X183412909Y-61580000D01*
X183288452Y-60954313D01*
X182934029Y-60423880D01*
X182763595Y-60310000D01*
X182934029Y-60196120D01*
X183288452Y-59665687D01*
X183412909Y-59040000D01*
X183288452Y-58414313D01*
X182934029Y-57883880D01*
X182763595Y-57770000D01*
X182934029Y-57656120D01*
X183288452Y-57125687D01*
X183412909Y-56500000D01*
X183288452Y-55874313D01*
X182934029Y-55343880D01*
X182403596Y-54989457D01*
X182200000Y-54948959D01*
X182200000Y-52690000D01*
X182142148Y-52399161D01*
X182142148Y-52399160D01*
X181977401Y-52152599D01*
X179437401Y-49612599D01*
X179190839Y-49447852D01*
X178900000Y-49390000D01*
X167784802Y-49390000D01*
X165435400Y-47040598D01*
X165188838Y-46875851D01*
X164897999Y-46817999D01*
X146478221Y-46817999D01*
X146614718Y-46441721D01*
X146588315Y-45851542D01*
X146413259Y-45428920D01*
X146161958Y-45348647D01*
X145297605Y-46213000D01*
X145311748Y-46227143D01*
X145132143Y-46406748D01*
X145118000Y-46392605D01*
X145103858Y-46406748D01*
X144924253Y-46227143D01*
X144938395Y-46213000D01*
X144074042Y-45348647D01*
X143848000Y-45420852D01*
X143621958Y-45348647D01*
X142757605Y-46213000D01*
X142771748Y-46227143D01*
X142592143Y-46406748D01*
X142578000Y-46392605D01*
X141713647Y-47256958D01*
X141783181Y-47474640D01*
X141737914Y-47493344D01*
X141319812Y-47910717D01*
X141308252Y-47938557D01*
X141297656Y-47912914D01*
X140880283Y-47494812D01*
X140832688Y-47475049D01*
X140902353Y-47256958D01*
X140038000Y-46392605D01*
X140023858Y-46406748D01*
X139844253Y-46227143D01*
X139858395Y-46213000D01*
X140217605Y-46213000D01*
X141081958Y-47077353D01*
X141308000Y-47005148D01*
X141534042Y-47077353D01*
X142398395Y-46213000D01*
X141534042Y-45348647D01*
X141308000Y-45420852D01*
X141081958Y-45348647D01*
X140217605Y-46213000D01*
X139858395Y-46213000D01*
X138994042Y-45348647D01*
X138768000Y-45420852D01*
X138541958Y-45348647D01*
X137677605Y-46213000D01*
X137691748Y-46227143D01*
X137512143Y-46406748D01*
X137498000Y-46392605D01*
X137483858Y-46406748D01*
X137304253Y-46227143D01*
X137318395Y-46213000D01*
X136454042Y-45348647D01*
X136236360Y-45418181D01*
X136217656Y-45372914D01*
X136014140Y-45169042D01*
X136633647Y-45169042D01*
X137498000Y-46033395D01*
X138362353Y-45169042D01*
X139173647Y-45169042D01*
X140038000Y-46033395D01*
X140902353Y-45169042D01*
X141713647Y-45169042D01*
X142578000Y-46033395D01*
X143442353Y-45169042D01*
X144253647Y-45169042D01*
X145118000Y-46033395D01*
X145982353Y-45169042D01*
X145902080Y-44917741D01*
X145346721Y-44716282D01*
X144756542Y-44742685D01*
X144333920Y-44917741D01*
X144253647Y-45169042D01*
X143442353Y-45169042D01*
X143362080Y-44917741D01*
X142806721Y-44716282D01*
X142216542Y-44742685D01*
X141793920Y-44917741D01*
X141713647Y-45169042D01*
X140902353Y-45169042D01*
X140822080Y-44917741D01*
X140266721Y-44716282D01*
X139676542Y-44742685D01*
X139253920Y-44917741D01*
X139173647Y-45169042D01*
X138362353Y-45169042D01*
X138282080Y-44917741D01*
X137726721Y-44716282D01*
X137136542Y-44742685D01*
X136713920Y-44917741D01*
X136633647Y-45169042D01*
X136014140Y-45169042D01*
X135843000Y-44997604D01*
X135843000Y-44928580D01*
X136721579Y-44050000D01*
X153133420Y-44050000D01*
X155197255Y-46113834D01*
X155246883Y-46233943D01*
X155509673Y-46497192D01*
X155853201Y-46639838D01*
X156225167Y-46640162D01*
X156568943Y-46498117D01*
X156832192Y-46235327D01*
X156974838Y-45891799D01*
X156975162Y-45519833D01*
X156833117Y-45176057D01*
X156570327Y-44912808D01*
X156449013Y-44862434D01*
X154125790Y-42539210D01*
X153838675Y-42347367D01*
X153779664Y-42335629D01*
X153500000Y-42279999D01*
X153499995Y-42280000D01*
X136355000Y-42280000D01*
X136016325Y-42347367D01*
X135729210Y-42539210D01*
X135729208Y-42539213D01*
X134591420Y-43677000D01*
X130538405Y-43677000D01*
X130538400Y-43676999D01*
X130199726Y-43744366D01*
X130199724Y-43744367D01*
X130199725Y-43744367D01*
X129912610Y-43936210D01*
X129912608Y-43936213D01*
X128312756Y-45536064D01*
X128236210Y-45587210D01*
X128236208Y-45587213D01*
X111649551Y-62173869D01*
X111574210Y-62224210D01*
X111574208Y-62224213D01*
X108424210Y-65374210D01*
X108232367Y-65661325D01*
X108232367Y-65661326D01*
X108164999Y-66000000D01*
X108165000Y-66000005D01*
X108165000Y-72848554D01*
X108014683Y-72876838D01*
X107798559Y-73015910D01*
X107703523Y-73155000D01*
X101647440Y-73155000D01*
X101647440Y-72865000D01*
X101603162Y-72629683D01*
X101464090Y-72413559D01*
X101251890Y-72268569D01*
X101000000Y-72217560D01*
X98000000Y-72217560D01*
X97764683Y-72261838D01*
X97548559Y-72400910D01*
X97403569Y-72613110D01*
X97352560Y-72865000D01*
X97352560Y-73184327D01*
X97161325Y-73222367D01*
X96874210Y-73414210D01*
X96874208Y-73414213D01*
X94574210Y-75714210D01*
X94382367Y-76001325D01*
X94382367Y-76001326D01*
X94314999Y-76340000D01*
X94315000Y-76340005D01*
X94315000Y-94999995D01*
X94314999Y-95000000D01*
X94371190Y-95282484D01*
X94382367Y-95338675D01*
X94506215Y-95524027D01*
X94574210Y-95625790D01*
X108774208Y-109825787D01*
X108774210Y-109825790D01*
X108844865Y-109873000D01*
X96879214Y-109873000D01*
X97169515Y-109753050D01*
X98249259Y-108675189D01*
X98834333Y-107266175D01*
X98835664Y-105740518D01*
X98253050Y-104330485D01*
X97175189Y-103250741D01*
X95766175Y-102665667D01*
X94240518Y-102664336D01*
X92830485Y-103246950D01*
X91750741Y-104324811D01*
X91627000Y-104622812D01*
X91627000Y-56759482D01*
X105664336Y-56759482D01*
X106246950Y-58169515D01*
X107324811Y-59249259D01*
X108733825Y-59834333D01*
X110259482Y-59835664D01*
X111669515Y-59253050D01*
X112749259Y-58175189D01*
X113334333Y-56766175D01*
X113335664Y-55240518D01*
X112753050Y-53830485D01*
X111675189Y-52750741D01*
X110266175Y-52165667D01*
X108740518Y-52164336D01*
X107330485Y-52746950D01*
X106250741Y-53824811D01*
X105665667Y-55233825D01*
X105664336Y-56759482D01*
X91627000Y-56759482D01*
X91627000Y-46879214D01*
X91746950Y-47169515D01*
X92824811Y-48249259D01*
X94233825Y-48834333D01*
X95759482Y-48835664D01*
X97169515Y-48253050D01*
X98249259Y-47175189D01*
X98834333Y-45766175D01*
X98835664Y-44240518D01*
X98253050Y-42830485D01*
X97175189Y-41750741D01*
X96877188Y-41627000D01*
X107620786Y-41627000D01*
X107330485Y-41746950D01*
X107330485Y-41746950D01*
G37*
X107330485Y-41746950D02*
X106250741Y-42824811D01*
X105665667Y-44233825D01*
X105664336Y-45759482D01*
X106246950Y-47169515D01*
X107324811Y-48249259D01*
X108733825Y-48834333D01*
X110259482Y-48835664D01*
X111669515Y-48253050D01*
X112749259Y-47175189D01*
X113334333Y-45766175D01*
X113335664Y-44240518D01*
X112753050Y-42830485D01*
X111675189Y-41750741D01*
X111377188Y-41627000D01*
X168620786Y-41627000D01*
X168330485Y-41746950D01*
X167250741Y-42824811D01*
X166665667Y-44233825D01*
X166664336Y-45759482D01*
X167246950Y-47169515D01*
X168324811Y-48249259D01*
X169733825Y-48834333D01*
X171259482Y-48835664D01*
X172669515Y-48253050D01*
X173749259Y-47175189D01*
X174334333Y-45766175D01*
X174335664Y-44240518D01*
X173753050Y-42830485D01*
X172675189Y-41750741D01*
X172377188Y-41627000D01*
X183120786Y-41627000D01*
X182830485Y-41746950D01*
X181750741Y-42824811D01*
X181165667Y-44233825D01*
X181164336Y-45759482D01*
X181746950Y-47169515D01*
X182824811Y-48249259D01*
X184233825Y-48834333D01*
X185759482Y-48835664D01*
X187169515Y-48253050D01*
X188249259Y-47175189D01*
X188373000Y-46877188D01*
X188373000Y-104423730D01*
X188253050Y-104133429D01*
X187175189Y-103053685D01*
X185766175Y-102468611D01*
X184240518Y-102467280D01*
X182830485Y-103049894D01*
X181750741Y-104127755D01*
X181165667Y-105536769D01*
X181164336Y-107062426D01*
X181746950Y-108472459D01*
X182824811Y-109552203D01*
X183597376Y-109873000D01*
X175755135Y-109873000D01*
X175825790Y-109825790D01*
X179635790Y-106015789D01*
X179827633Y-105728674D01*
X179895001Y-105390000D01*
X179890000Y-105364859D01*
X179890000Y-97105005D01*
X179890001Y-97105000D01*
X179822633Y-96766326D01*
X179822633Y-96766325D01*
X179630790Y-96479210D01*
X179630787Y-96479208D01*
X178299080Y-95147500D01*
X179525787Y-93920792D01*
X179525790Y-93920790D01*
X179717633Y-93633675D01*
X179737263Y-93534990D01*
X179785001Y-93295000D01*
X179785000Y-93294995D01*
X179785000Y-92500000D01*
X179717633Y-92161325D01*
X179525790Y-91874210D01*
X179525787Y-91874208D01*
X177245789Y-89594209D01*
X176958674Y-89402366D01*
X176902483Y-89391189D01*
X176619999Y-89334998D01*
X176619994Y-89334999D01*
X175256581Y-89334999D01*
X182065787Y-82525792D01*
X182065790Y-82525790D01*
X182257633Y-82238675D01*
X182325000Y-81900000D01*
X182325000Y-74657440D01*
X182740000Y-74657440D01*
X182975317Y-74613162D01*
X183191441Y-74474090D01*
X183336431Y-74261890D01*
X183387440Y-74010000D01*
X183387440Y-72010000D01*
X183343162Y-71774683D01*
X183204090Y-71558559D01*
X183037380Y-71444651D01*
X183299144Y-70978355D01*
X183330124Y-70850434D01*
X183210777Y-70597000D01*
X181567000Y-70597000D01*
X181567000Y-70617000D01*
X181313000Y-70617000D01*
X181313000Y-70597000D01*
X179669223Y-70597000D01*
X179549876Y-70850434D01*
X179580856Y-70978355D01*
X179843495Y-71446211D01*
X179688559Y-71545910D01*
X179543569Y-71758110D01*
X179492560Y-72010000D01*
X179492560Y-74010000D01*
X179536838Y-74245317D01*
X179675910Y-74461441D01*
X179888110Y-74606431D01*
X180140000Y-74657440D01*
X180555000Y-74657440D01*
X180555000Y-81533421D01*
X173893919Y-88194501D01*
X173846154Y-88185000D01*
X173793846Y-88185000D01*
X173282964Y-88286621D01*
X172849858Y-88576012D01*
X172560467Y-89009118D01*
X172458846Y-89520000D01*
X172560467Y-90030882D01*
X172849858Y-90463988D01*
X173282964Y-90753379D01*
X173793846Y-90855000D01*
X173846154Y-90855000D01*
X173893920Y-90845499D01*
X173894207Y-90845786D01*
X173894209Y-90845789D01*
X174095073Y-90980001D01*
X174181324Y-91037632D01*
X174519999Y-91105000D01*
X174520004Y-91104999D01*
X176253419Y-91104999D01*
X178015000Y-92866579D01*
X178015000Y-92928421D01*
X176628420Y-94315000D01*
X171859802Y-94315000D01*
X172843424Y-93331378D01*
X173042796Y-93531098D01*
X173533287Y-93734768D01*
X174064383Y-93735231D01*
X174555229Y-93532418D01*
X174931098Y-93157204D01*
X175134768Y-92666713D01*
X175135231Y-92135617D01*
X174932418Y-91644771D01*
X174557204Y-91268902D01*
X174066713Y-91065232D01*
X173535617Y-91064769D01*
X173044771Y-91267582D01*
X172668902Y-91642796D01*
X172667368Y-91646491D01*
X172409160Y-91697852D01*
X172162599Y-91862599D01*
X170885198Y-93140000D01*
X167286442Y-93140000D01*
X167439533Y-92910882D01*
X167541154Y-92400000D01*
X167439533Y-91889118D01*
X167150142Y-91456012D01*
X166960000Y-91328964D01*
X166960000Y-90647655D01*
X167331098Y-90277204D01*
X167534768Y-89786713D01*
X167535231Y-89255617D01*
X167332418Y-88764771D01*
X167086439Y-88518363D01*
X172291546Y-83313256D01*
X172343309Y-83334750D01*
X172914187Y-83335248D01*
X173441800Y-83117243D01*
X173651663Y-82907745D01*
X176801861Y-82907745D01*
X176875995Y-83153864D01*
X177413223Y-83346965D01*
X177983454Y-83319778D01*
X178384005Y-83153864D01*
X178458139Y-82907745D01*
X177630000Y-82079605D01*
X176801861Y-82907745D01*
X173651663Y-82907745D01*
X173845824Y-82713923D01*
X174064750Y-82186691D01*
X174065189Y-81683223D01*
X176183035Y-81683223D01*
X176210222Y-82253454D01*
X176376136Y-82654005D01*
X176622255Y-82728139D01*
X177450395Y-81900000D01*
X177809605Y-81900000D01*
X178637745Y-82728139D01*
X178883864Y-82654005D01*
X179076965Y-82116777D01*
X179049778Y-81546546D01*
X178883864Y-81145995D01*
X178637745Y-81071861D01*
X177809605Y-81900000D01*
X177450395Y-81900000D01*
X176622255Y-81071861D01*
X176376136Y-81145995D01*
X176183035Y-81683223D01*
X174065189Y-81683223D01*
X174065248Y-81615813D01*
X173847243Y-81088200D01*
X173651640Y-80892255D01*
X176801861Y-80892255D01*
X177630000Y-81720395D01*
X178458139Y-80892255D01*
X178384005Y-80646136D01*
X177846777Y-80453035D01*
X177276546Y-80480222D01*
X176875995Y-80646136D01*
X176801861Y-80892255D01*
X173651640Y-80892255D01*
X173443923Y-80684176D01*
X172916691Y-80465250D01*
X172345813Y-80464752D01*
X171818200Y-80682757D01*
X171414176Y-81086077D01*
X171195250Y-81613309D01*
X171194752Y-82184187D01*
X171217049Y-82238149D01*
X165662599Y-87792599D01*
X165497852Y-88039161D01*
X165440000Y-88330000D01*
X165440000Y-88392345D01*
X165158328Y-88673526D01*
X164420000Y-87935198D01*
X164420000Y-85712954D01*
X164710054Y-85519147D01*
X164930000Y-85189974D01*
X165149946Y-85519147D01*
X165631715Y-85841054D01*
X166200000Y-85954093D01*
X166768285Y-85841054D01*
X167250054Y-85519147D01*
X167571961Y-85037378D01*
X167685000Y-84469093D01*
X167685000Y-84410907D01*
X167571961Y-83842622D01*
X167250054Y-83360853D01*
X167248821Y-83360029D01*
X167285317Y-83353162D01*
X167501441Y-83214090D01*
X167646431Y-83001890D01*
X167697440Y-82750000D01*
X167697440Y-81050000D01*
X167653162Y-80814683D01*
X167514090Y-80598559D01*
X167301890Y-80453569D01*
X167050000Y-80402560D01*
X165350000Y-80402560D01*
X165114683Y-80446838D01*
X164898559Y-80585910D01*
X164753569Y-80798110D01*
X164739914Y-80865541D01*
X164710054Y-80820853D01*
X164420000Y-80627046D01*
X164420000Y-71563078D01*
X164603988Y-71440142D01*
X164893379Y-71007036D01*
X164995000Y-70496154D01*
X164995000Y-70443846D01*
X164924530Y-70089566D01*
X179549876Y-70089566D01*
X179669223Y-70343000D01*
X181313000Y-70343000D01*
X181313000Y-68835000D01*
X181567000Y-68835000D01*
X181567000Y-70343000D01*
X183210777Y-70343000D01*
X183330124Y-70089566D01*
X183299144Y-69961645D01*
X182985922Y-69403683D01*
X182483020Y-69008058D01*
X181867000Y-68835000D01*
X181567000Y-68835000D01*
X181313000Y-68835000D01*
X181013000Y-68835000D01*
X180396980Y-69008058D01*
X179894078Y-69403683D01*
X179580856Y-69961645D01*
X179549876Y-70089566D01*
X164924530Y-70089566D01*
X164893379Y-69932964D01*
X164603988Y-69499858D01*
X164170882Y-69210467D01*
X163660000Y-69108846D01*
X163149118Y-69210467D01*
X162716012Y-69499858D01*
X162426621Y-69932964D01*
X162325000Y-70443846D01*
X162325000Y-70496154D01*
X162426621Y-71007036D01*
X162716012Y-71440142D01*
X162900000Y-71563078D01*
X162900000Y-80627046D01*
X162609946Y-80820853D01*
X162390000Y-81150026D01*
X162170054Y-80820853D01*
X161688285Y-80498946D01*
X161120000Y-80385907D01*
X160551715Y-80498946D01*
X160069946Y-80820853D01*
X159856699Y-81140000D01*
X159843301Y-81140000D01*
X159630054Y-80820853D01*
X159340000Y-80627046D01*
X159340000Y-71563078D01*
X159523988Y-71440142D01*
X159813379Y-71007036D01*
X159915000Y-70496154D01*
X159915000Y-70443846D01*
X159813379Y-69932964D01*
X159523988Y-69499858D01*
X159090882Y-69210467D01*
X158580000Y-69108846D01*
X158069118Y-69210467D01*
X157636012Y-69499858D01*
X157346621Y-69932964D01*
X157245000Y-70443846D01*
X157245000Y-70496154D01*
X157346621Y-71007036D01*
X157636012Y-71440142D01*
X157820000Y-71563078D01*
X157820000Y-80627046D01*
X157529946Y-80820853D01*
X157208039Y-81302622D01*
X157095000Y-81870907D01*
X157095000Y-81929093D01*
X157208039Y-82497378D01*
X157213131Y-82504999D01*
X153452577Y-82504999D01*
X153584750Y-82186691D01*
X153585248Y-81615813D01*
X153367243Y-81088200D01*
X152963923Y-80684176D01*
X152436691Y-80465250D01*
X151865813Y-80464752D01*
X151338200Y-80682757D01*
X150934176Y-81086077D01*
X150715250Y-81613309D01*
X150714752Y-82184187D01*
X150932757Y-82711800D01*
X151336077Y-83115824D01*
X151413166Y-83147834D01*
X151447852Y-83322209D01*
X151612599Y-83568771D01*
X151846228Y-83802400D01*
X152092789Y-83967147D01*
X152383629Y-84024999D01*
X157171762Y-84024999D01*
X157095000Y-84410907D01*
X157095000Y-84469093D01*
X157208039Y-85037378D01*
X157529946Y-85519147D01*
X158011715Y-85841054D01*
X158580000Y-85954093D01*
X159148285Y-85841054D01*
X159630054Y-85519147D01*
X159850000Y-85189974D01*
X160069946Y-85519147D01*
X160360000Y-85712954D01*
X160360000Y-88392345D01*
X159988902Y-88762796D01*
X159785232Y-89253287D01*
X159784769Y-89784383D01*
X159987582Y-90275229D01*
X160360000Y-90648297D01*
X160360000Y-91302237D01*
X160129858Y-91456012D01*
X159840467Y-91889118D01*
X159738846Y-92400000D01*
X159840467Y-92910882D01*
X159993558Y-93140000D01*
X157429699Y-93140000D01*
X157534838Y-92886799D01*
X157535162Y-92514833D01*
X157393117Y-92171057D01*
X157130327Y-91907808D01*
X157009013Y-91857434D01*
X155638264Y-90486684D01*
X155638261Y-90486682D01*
X154829702Y-89678122D01*
X154861154Y-89520000D01*
X154759533Y-89009118D01*
X154470142Y-88576012D01*
X154037036Y-88286621D01*
X153526154Y-88185000D01*
X153473846Y-88185000D01*
X152962964Y-88286621D01*
X152529858Y-88576012D01*
X152240467Y-89009118D01*
X152181312Y-89306510D01*
X149837401Y-86962599D01*
X149590839Y-86797852D01*
X149300000Y-86740000D01*
X143932804Y-86740000D01*
X143881200Y-86480567D01*
X143557125Y-85995554D01*
X143072112Y-85671479D01*
X142500000Y-85557679D01*
X141927888Y-85671479D01*
X141442875Y-85995554D01*
X141245309Y-86291232D01*
X140967322Y-85943073D01*
X140454779Y-85660200D01*
X140358461Y-85638611D01*
X140127000Y-85759799D01*
X140127000Y-87373000D01*
X140147000Y-87373000D01*
X140147000Y-87627000D01*
X140127000Y-87627000D01*
X140127000Y-89240201D01*
X140358461Y-89361389D01*
X140454779Y-89339800D01*
X140967322Y-89056927D01*
X141245309Y-88708768D01*
X141442875Y-89004446D01*
X141927888Y-89328521D01*
X142500000Y-89442321D01*
X143072112Y-89328521D01*
X143557125Y-89004446D01*
X143881200Y-88519433D01*
X143932804Y-88260000D01*
X148985198Y-88260000D01*
X152020001Y-91294803D01*
X152020001Y-91700001D01*
X152077853Y-91990840D01*
X152155887Y-92107627D01*
X152145232Y-92133287D01*
X152144769Y-92664383D01*
X152341290Y-93140000D01*
X149939802Y-93140000D01*
X147052401Y-90252599D01*
X146805839Y-90087852D01*
X146515000Y-90030000D01*
X138574802Y-90030000D01*
X138260000Y-89715198D01*
X138260000Y-89202978D01*
X138557125Y-89004446D01*
X138754691Y-88708768D01*
X139032678Y-89056927D01*
X139545221Y-89339800D01*
X139641539Y-89361389D01*
X139873000Y-89240201D01*
X139873000Y-87627000D01*
X139853000Y-87627000D01*
X139853000Y-87373000D01*
X139873000Y-87373000D01*
X139873000Y-85759799D01*
X139641539Y-85638611D01*
X139545221Y-85660200D01*
X139032678Y-85943073D01*
X138754691Y-86291232D01*
X138557125Y-85995554D01*
X138072112Y-85671479D01*
X137500000Y-85557679D01*
X136927888Y-85671479D01*
X136442875Y-85995554D01*
X136118800Y-86480567D01*
X136005000Y-87052679D01*
X136005000Y-87947321D01*
X136118800Y-88519433D01*
X136442875Y-89004446D01*
X136740000Y-89202978D01*
X136740000Y-90030000D01*
X136797852Y-90320839D01*
X136962599Y-90567401D01*
X137722599Y-91327401D01*
X137969160Y-91492148D01*
X138260000Y-91550000D01*
X146200198Y-91550000D01*
X149087599Y-94437401D01*
X149334160Y-94602148D01*
X149625000Y-94660000D01*
X154488421Y-94660000D01*
X152974210Y-96174210D01*
X152782367Y-96461325D01*
X152778809Y-96479211D01*
X152714999Y-96800000D01*
X152715000Y-96800005D01*
X152715000Y-104997127D01*
X152468902Y-105242796D01*
X152265232Y-105733287D01*
X152264769Y-106264383D01*
X152467582Y-106755229D01*
X152751857Y-107040000D01*
X146806449Y-107040000D01*
X146950142Y-106943988D01*
X147239533Y-106510882D01*
X147341154Y-106000000D01*
X147239533Y-105489118D01*
X146950142Y-105056012D01*
X146517036Y-104766621D01*
X146006154Y-104665000D01*
X145953846Y-104665000D01*
X145442964Y-104766621D01*
X145009858Y-105056012D01*
X144866876Y-105270000D01*
X143738646Y-105270000D01*
X143717243Y-105218200D01*
X143313923Y-104814176D01*
X143260000Y-104791785D01*
X143260000Y-103702978D01*
X143557125Y-103504446D01*
X143881200Y-103019433D01*
X143995000Y-102447321D01*
X143995000Y-101552679D01*
X143881200Y-100980567D01*
X143557125Y-100495554D01*
X143218024Y-100268974D01*
X143202148Y-100189161D01*
X143037401Y-99942599D01*
X137074990Y-93980188D01*
X137074990Y-93600000D01*
X143752560Y-93600000D01*
X143752560Y-96400000D01*
X143796838Y-96635317D01*
X143935910Y-96851441D01*
X144148110Y-96996431D01*
X144400000Y-97047440D01*
X146800000Y-97047440D01*
X147035317Y-97003162D01*
X147251441Y-96864090D01*
X147396431Y-96651890D01*
X147447440Y-96400000D01*
X147447440Y-93600000D01*
X147403162Y-93364683D01*
X147264090Y-93148559D01*
X147051890Y-93003569D01*
X146800000Y-92952560D01*
X144400000Y-92952560D01*
X144164683Y-92996838D01*
X143948559Y-93135910D01*
X143803569Y-93348110D01*
X143752560Y-93600000D01*
X137074990Y-93600000D01*
X137074990Y-91384990D01*
X137017138Y-91094151D01*
X136852391Y-90847589D01*
X129495000Y-83490198D01*
X129495000Y-82907745D01*
X146321861Y-82907745D01*
X146395995Y-83153864D01*
X146933223Y-83346965D01*
X147503454Y-83319778D01*
X147904005Y-83153864D01*
X147978139Y-82907745D01*
X147150000Y-82079605D01*
X146321861Y-82907745D01*
X129495000Y-82907745D01*
X129495000Y-81683223D01*
X145703035Y-81683223D01*
X145730222Y-82253454D01*
X145896136Y-82654005D01*
X146142255Y-82728139D01*
X146970395Y-81900000D01*
X147329605Y-81900000D01*
X148157745Y-82728139D01*
X148403864Y-82654005D01*
X148596965Y-82116777D01*
X148569778Y-81546546D01*
X148403864Y-81145995D01*
X148157745Y-81071861D01*
X147329605Y-81900000D01*
X146970395Y-81900000D01*
X146142255Y-81071861D01*
X145896136Y-81145995D01*
X145703035Y-81683223D01*
X129495000Y-81683223D01*
X129495000Y-80892255D01*
X146321861Y-80892255D01*
X147150000Y-81720395D01*
X147978139Y-80892255D01*
X147904005Y-80646136D01*
X147366777Y-80453035D01*
X146796546Y-80480222D01*
X146395995Y-80646136D01*
X146321861Y-80892255D01*
X129495000Y-80892255D01*
X129495000Y-75287745D01*
X129811861Y-75287745D01*
X129885995Y-75533864D01*
X130423223Y-75726965D01*
X130993454Y-75699778D01*
X131394005Y-75533864D01*
X131468139Y-75287745D01*
X131388140Y-75207745D01*
X147972861Y-75207745D01*
X148046995Y-75453864D01*
X148584223Y-75646965D01*
X149154454Y-75619778D01*
X149555005Y-75453864D01*
X149629139Y-75207745D01*
X148801000Y-74379605D01*
X147972861Y-75207745D01*
X131388140Y-75207745D01*
X130640000Y-74459605D01*
X129811861Y-75287745D01*
X129495000Y-75287745D01*
X129495000Y-75066796D01*
X129632255Y-75108139D01*
X130460395Y-74280000D01*
X130819605Y-74280000D01*
X131647745Y-75108139D01*
X131893864Y-75034005D01*
X132086965Y-74496777D01*
X132062481Y-73983223D01*
X147354035Y-73983223D01*
X147381222Y-74553454D01*
X147547136Y-74954005D01*
X147793255Y-75028139D01*
X148621395Y-74200000D01*
X148980605Y-74200000D01*
X149808745Y-75028139D01*
X150054864Y-74954005D01*
X150247965Y-74416777D01*
X150220778Y-73846546D01*
X150054864Y-73445995D01*
X149808745Y-73371861D01*
X148980605Y-74200000D01*
X148621395Y-74200000D01*
X147793255Y-73371861D01*
X147547136Y-73445995D01*
X147354035Y-73983223D01*
X132062481Y-73983223D01*
X132059778Y-73926546D01*
X131893864Y-73525995D01*
X131647745Y-73451861D01*
X130819605Y-74280000D01*
X130460395Y-74280000D01*
X129632255Y-73451861D01*
X129495000Y-73493204D01*
X129495000Y-73272255D01*
X129811861Y-73272255D01*
X130640000Y-74100395D01*
X131468139Y-73272255D01*
X131394005Y-73026136D01*
X130856777Y-72833035D01*
X130286546Y-72860222D01*
X129885995Y-73026136D01*
X129811861Y-73272255D01*
X129495000Y-73272255D01*
X129495000Y-70164169D01*
X129826077Y-70495824D01*
X130353309Y-70714750D01*
X130924187Y-70715248D01*
X130978149Y-70692951D01*
X132689599Y-72404401D01*
X132936161Y-72569148D01*
X133227000Y-72627000D01*
X136313453Y-72627000D01*
X136323169Y-72650515D01*
X136712436Y-73040461D01*
X137221298Y-73251759D01*
X137772285Y-73252240D01*
X138281515Y-73041831D01*
X138671461Y-72652564D01*
X138882759Y-72143702D01*
X138883240Y-71592715D01*
X138872670Y-71567132D01*
X141145000Y-69294802D01*
X141145000Y-69670000D01*
X141202852Y-69960839D01*
X141367599Y-70207401D01*
X141738000Y-70577802D01*
X141738000Y-70682453D01*
X141714485Y-70692169D01*
X141324539Y-71081436D01*
X141113241Y-71590298D01*
X141112760Y-72141285D01*
X141323169Y-72650515D01*
X141712436Y-73040461D01*
X142221298Y-73251759D01*
X142772285Y-73252240D01*
X142917460Y-73192255D01*
X147972861Y-73192255D01*
X148801000Y-74020395D01*
X149629139Y-73192255D01*
X149555005Y-72946136D01*
X149017777Y-72753035D01*
X148447546Y-72780222D01*
X148046995Y-72946136D01*
X147972861Y-73192255D01*
X142917460Y-73192255D01*
X143281515Y-73041831D01*
X143671461Y-72652564D01*
X143882759Y-72143702D01*
X143883240Y-71592715D01*
X143672831Y-71083485D01*
X143612451Y-71023000D01*
X144102000Y-71023000D01*
X144392839Y-70965148D01*
X144639401Y-70800401D01*
X145479802Y-69960000D01*
X147562354Y-69960000D01*
X147583757Y-70011800D01*
X147987077Y-70415824D01*
X148514309Y-70634750D01*
X149085187Y-70635248D01*
X149612800Y-70417243D01*
X150016824Y-70013923D01*
X150235750Y-69486691D01*
X150236248Y-68915813D01*
X150018243Y-68388200D01*
X149614923Y-67984176D01*
X149087691Y-67765250D01*
X148516813Y-67764752D01*
X147989200Y-67982757D01*
X147585176Y-68386077D01*
X147562785Y-68440000D01*
X145165000Y-68440000D01*
X144874161Y-68497852D01*
X144627599Y-68662599D01*
X143787198Y-69503000D01*
X142812802Y-69503000D01*
X142665000Y-69355198D01*
X142665000Y-67859914D01*
X142875000Y-67902440D01*
X143475000Y-67902440D01*
X143710317Y-67858162D01*
X143809528Y-67794322D01*
X143893110Y-67851431D01*
X144145000Y-67902440D01*
X144745000Y-67902440D01*
X144980317Y-67858162D01*
X145079528Y-67794322D01*
X145163110Y-67851431D01*
X145415000Y-67902440D01*
X146015000Y-67902440D01*
X146250317Y-67858162D01*
X146466441Y-67719090D01*
X146611431Y-67506890D01*
X146662440Y-67255000D01*
X146662440Y-65305000D01*
X146618162Y-65069683D01*
X146479090Y-64853559D01*
X146475000Y-64850764D01*
X146475000Y-63955000D01*
X146417148Y-63664161D01*
X146252401Y-63417599D01*
X145174802Y-62340000D01*
X151661198Y-62340000D01*
X154740599Y-65419401D01*
X154987160Y-65584148D01*
X155278000Y-65642000D01*
X161628000Y-65642000D01*
X161918839Y-65584148D01*
X162165401Y-65419401D01*
X163400028Y-64184774D01*
X163924383Y-64185231D01*
X164415229Y-63982418D01*
X164791098Y-63607204D01*
X164994768Y-63116713D01*
X164995231Y-62585617D01*
X164792418Y-62094771D01*
X164417204Y-61718902D01*
X163926713Y-61515232D01*
X163395617Y-61514769D01*
X162904771Y-61717582D01*
X162528902Y-62092796D01*
X162325232Y-62583287D01*
X162324772Y-63110426D01*
X161313198Y-64122000D01*
X158997414Y-64122000D01*
X159335229Y-63982418D01*
X159711098Y-63607204D01*
X159914768Y-63116713D01*
X159915231Y-62585617D01*
X159712418Y-62094771D01*
X159337204Y-61718902D01*
X159309647Y-61707460D01*
X159282148Y-61569211D01*
X159117401Y-61322650D01*
X158229751Y-60435000D01*
X165250198Y-60435000D01*
X167821599Y-63006401D01*
X168068161Y-63171148D01*
X168359000Y-63229000D01*
X179174198Y-63229000D01*
X179492560Y-63547362D01*
X179492560Y-65120000D01*
X179536838Y-65355317D01*
X179675910Y-65571441D01*
X179888110Y-65716431D01*
X180140000Y-65767440D01*
X182740000Y-65767440D01*
X182975317Y-65723162D01*
X183191441Y-65584090D01*
X183336431Y-65371890D01*
X183387440Y-65120000D01*
X183387440Y-63120000D01*
X183343162Y-62884683D01*
X183204090Y-62668559D01*
X183049671Y-62563049D01*
X183288452Y-62205687D01*
X183412909Y-61580000D01*
X183288452Y-60954313D01*
X182934029Y-60423880D01*
X182763595Y-60310000D01*
X182934029Y-60196120D01*
X183288452Y-59665687D01*
X183412909Y-59040000D01*
X183288452Y-58414313D01*
X182934029Y-57883880D01*
X182763595Y-57770000D01*
X182934029Y-57656120D01*
X183288452Y-57125687D01*
X183412909Y-56500000D01*
X183288452Y-55874313D01*
X182934029Y-55343880D01*
X182403596Y-54989457D01*
X182200000Y-54948959D01*
X182200000Y-52690000D01*
X182142148Y-52399161D01*
X182142148Y-52399160D01*
X181977401Y-52152599D01*
X179437401Y-49612599D01*
X179190839Y-49447852D01*
X178900000Y-49390000D01*
X167784802Y-49390000D01*
X165435400Y-47040598D01*
X165188838Y-46875851D01*
X164897999Y-46817999D01*
X146478221Y-46817999D01*
X146614718Y-46441721D01*
X146588315Y-45851542D01*
X146413259Y-45428920D01*
X146161958Y-45348647D01*
X145297605Y-46213000D01*
X145311748Y-46227143D01*
X145132143Y-46406748D01*
X145118000Y-46392605D01*
X145103858Y-46406748D01*
X144924253Y-46227143D01*
X144938395Y-46213000D01*
X144074042Y-45348647D01*
X143848000Y-45420852D01*
X143621958Y-45348647D01*
X142757605Y-46213000D01*
X142771748Y-46227143D01*
X142592143Y-46406748D01*
X142578000Y-46392605D01*
X141713647Y-47256958D01*
X141783181Y-47474640D01*
X141737914Y-47493344D01*
X141319812Y-47910717D01*
X141308252Y-47938557D01*
X141297656Y-47912914D01*
X140880283Y-47494812D01*
X140832688Y-47475049D01*
X140902353Y-47256958D01*
X140038000Y-46392605D01*
X140023858Y-46406748D01*
X139844253Y-46227143D01*
X139858395Y-46213000D01*
X140217605Y-46213000D01*
X141081958Y-47077353D01*
X141308000Y-47005148D01*
X141534042Y-47077353D01*
X142398395Y-46213000D01*
X141534042Y-45348647D01*
X141308000Y-45420852D01*
X141081958Y-45348647D01*
X140217605Y-46213000D01*
X139858395Y-46213000D01*
X138994042Y-45348647D01*
X138768000Y-45420852D01*
X138541958Y-45348647D01*
X137677605Y-46213000D01*
X137691748Y-46227143D01*
X137512143Y-46406748D01*
X137498000Y-46392605D01*
X137483858Y-46406748D01*
X137304253Y-46227143D01*
X137318395Y-46213000D01*
X136454042Y-45348647D01*
X136236360Y-45418181D01*
X136217656Y-45372914D01*
X136014140Y-45169042D01*
X136633647Y-45169042D01*
X137498000Y-46033395D01*
X138362353Y-45169042D01*
X139173647Y-45169042D01*
X140038000Y-46033395D01*
X140902353Y-45169042D01*
X141713647Y-45169042D01*
X142578000Y-46033395D01*
X143442353Y-45169042D01*
X144253647Y-45169042D01*
X145118000Y-46033395D01*
X145982353Y-45169042D01*
X145902080Y-44917741D01*
X145346721Y-44716282D01*
X144756542Y-44742685D01*
X144333920Y-44917741D01*
X144253647Y-45169042D01*
X143442353Y-45169042D01*
X143362080Y-44917741D01*
X142806721Y-44716282D01*
X142216542Y-44742685D01*
X141793920Y-44917741D01*
X141713647Y-45169042D01*
X140902353Y-45169042D01*
X140822080Y-44917741D01*
X140266721Y-44716282D01*
X139676542Y-44742685D01*
X139253920Y-44917741D01*
X139173647Y-45169042D01*
X138362353Y-45169042D01*
X138282080Y-44917741D01*
X137726721Y-44716282D01*
X137136542Y-44742685D01*
X136713920Y-44917741D01*
X136633647Y-45169042D01*
X136014140Y-45169042D01*
X135843000Y-44997604D01*
X135843000Y-44928580D01*
X136721579Y-44050000D01*
X153133420Y-44050000D01*
X155197255Y-46113834D01*
X155246883Y-46233943D01*
X155509673Y-46497192D01*
X155853201Y-46639838D01*
X156225167Y-46640162D01*
X156568943Y-46498117D01*
X156832192Y-46235327D01*
X156974838Y-45891799D01*
X156975162Y-45519833D01*
X156833117Y-45176057D01*
X156570327Y-44912808D01*
X156449013Y-44862434D01*
X154125790Y-42539210D01*
X153838675Y-42347367D01*
X153779664Y-42335629D01*
X153500000Y-42279999D01*
X153499995Y-42280000D01*
X136355000Y-42280000D01*
X136016325Y-42347367D01*
X135729210Y-42539210D01*
X135729208Y-42539213D01*
X134591420Y-43677000D01*
X130538405Y-43677000D01*
X130538400Y-43676999D01*
X130199726Y-43744366D01*
X130199724Y-43744367D01*
X130199725Y-43744367D01*
X129912610Y-43936210D01*
X129912608Y-43936213D01*
X128312756Y-45536064D01*
X128236210Y-45587210D01*
X128236208Y-45587213D01*
X111649551Y-62173869D01*
X111574210Y-62224210D01*
X111574208Y-62224213D01*
X108424210Y-65374210D01*
X108232367Y-65661325D01*
X108232367Y-65661326D01*
X108164999Y-66000000D01*
X108165000Y-66000005D01*
X108165000Y-72848554D01*
X108014683Y-72876838D01*
X107798559Y-73015910D01*
X107703523Y-73155000D01*
X101647440Y-73155000D01*
X101647440Y-72865000D01*
X101603162Y-72629683D01*
X101464090Y-72413559D01*
X101251890Y-72268569D01*
X101000000Y-72217560D01*
X98000000Y-72217560D01*
X97764683Y-72261838D01*
X97548559Y-72400910D01*
X97403569Y-72613110D01*
X97352560Y-72865000D01*
X97352560Y-73184327D01*
X97161325Y-73222367D01*
X96874210Y-73414210D01*
X96874208Y-73414213D01*
X94574210Y-75714210D01*
X94382367Y-76001325D01*
X94382367Y-76001326D01*
X94314999Y-76340000D01*
X94315000Y-76340005D01*
X94315000Y-94999995D01*
X94314999Y-95000000D01*
X94371190Y-95282484D01*
X94382367Y-95338675D01*
X94506215Y-95524027D01*
X94574210Y-95625790D01*
X108774208Y-109825787D01*
X108774210Y-109825790D01*
X108844865Y-109873000D01*
X96879214Y-109873000D01*
X97169515Y-109753050D01*
X98249259Y-108675189D01*
X98834333Y-107266175D01*
X98835664Y-105740518D01*
X98253050Y-104330485D01*
X97175189Y-103250741D01*
X95766175Y-102665667D01*
X94240518Y-102664336D01*
X92830485Y-103246950D01*
X91750741Y-104324811D01*
X91627000Y-104622812D01*
X91627000Y-56759482D01*
X105664336Y-56759482D01*
X106246950Y-58169515D01*
X107324811Y-59249259D01*
X108733825Y-59834333D01*
X110259482Y-59835664D01*
X111669515Y-59253050D01*
X112749259Y-58175189D01*
X113334333Y-56766175D01*
X113335664Y-55240518D01*
X112753050Y-53830485D01*
X111675189Y-52750741D01*
X110266175Y-52165667D01*
X108740518Y-52164336D01*
X107330485Y-52746950D01*
X106250741Y-53824811D01*
X105665667Y-55233825D01*
X105664336Y-56759482D01*
X91627000Y-56759482D01*
X91627000Y-46879214D01*
X91746950Y-47169515D01*
X92824811Y-48249259D01*
X94233825Y-48834333D01*
X95759482Y-48835664D01*
X97169515Y-48253050D01*
X98249259Y-47175189D01*
X98834333Y-45766175D01*
X98835664Y-44240518D01*
X98253050Y-42830485D01*
X97175189Y-41750741D01*
X96877188Y-41627000D01*
X107620786Y-41627000D01*
X107330485Y-41746950D01*
G36*
X156452796Y-96311098D02*
X156943287Y-96514768D01*
X157474383Y-96515231D01*
X157965229Y-96312418D01*
X158193044Y-96085000D01*
X176733420Y-96085000D01*
X178120000Y-97471579D01*
X178120000Y-105028421D01*
X174833420Y-108315000D01*
X155369802Y-108315000D01*
X157747401Y-105937401D01*
X157912148Y-105690839D01*
X157970000Y-105400000D01*
X157970000Y-103893078D01*
X158153988Y-103770142D01*
X158294400Y-103560000D01*
X159750000Y-103560000D01*
X160040839Y-103502148D01*
X160287401Y-103337401D01*
X163221546Y-100403256D01*
X163273309Y-100424750D01*
X163800000Y-100425209D01*
X163800000Y-102452560D01*
X163560000Y-102452560D01*
X163324683Y-102496838D01*
X163108559Y-102635910D01*
X162963569Y-102848110D01*
X162912560Y-103100000D01*
X162912560Y-105700000D01*
X162956838Y-105935317D01*
X163095910Y-106151441D01*
X163308110Y-106296431D01*
X163560000Y-106347440D01*
X165560000Y-106347440D01*
X165795317Y-106303162D01*
X166011441Y-106164090D01*
X166125349Y-105997380D01*
X166591645Y-106259144D01*
X166719566Y-106290124D01*
X166973000Y-106170777D01*
X166973000Y-104527000D01*
X167227000Y-104527000D01*
X167227000Y-106170777D01*
X167480434Y-106290124D01*
X167608355Y-106259144D01*
X168166317Y-105945922D01*
X168561942Y-105443020D01*
X168735000Y-104827000D01*
X168735000Y-104527000D01*
X167227000Y-104527000D01*
X166973000Y-104527000D01*
X166953000Y-104527000D01*
X166953000Y-104273000D01*
X166973000Y-104273000D01*
X166973000Y-102629223D01*
X167227000Y-102629223D01*
X167227000Y-104273000D01*
X168735000Y-104273000D01*
X168735000Y-103973000D01*
X168561942Y-103356980D01*
X168166317Y-102854078D01*
X167608355Y-102540856D01*
X167480434Y-102509876D01*
X167227000Y-102629223D01*
X166973000Y-102629223D01*
X166719566Y-102509876D01*
X166591645Y-102540856D01*
X166123789Y-102803495D01*
X166024090Y-102648559D01*
X165811890Y-102503569D01*
X165560000Y-102452560D01*
X165320000Y-102452560D01*
X165320000Y-99997745D01*
X167731861Y-99997745D01*
X167805995Y-100243864D01*
X168343223Y-100436965D01*
X168913454Y-100409778D01*
X169314005Y-100243864D01*
X169388139Y-99997745D01*
X168560000Y-99169605D01*
X167731861Y-99997745D01*
X165320000Y-99997745D01*
X165320000Y-99990000D01*
X165262148Y-99699161D01*
X165097401Y-99452599D01*
X164973256Y-99328454D01*
X164994750Y-99276691D01*
X164995189Y-98773223D01*
X167113035Y-98773223D01*
X167140222Y-99343454D01*
X167306136Y-99744005D01*
X167552255Y-99818139D01*
X168380395Y-98990000D01*
X168739605Y-98990000D01*
X169567745Y-99818139D01*
X169813864Y-99744005D01*
X170006965Y-99206777D01*
X169979778Y-98636546D01*
X169813864Y-98235995D01*
X169567745Y-98161861D01*
X168739605Y-98990000D01*
X168380395Y-98990000D01*
X167552255Y-98161861D01*
X167306136Y-98235995D01*
X167113035Y-98773223D01*
X164995189Y-98773223D01*
X164995248Y-98705813D01*
X164777243Y-98178200D01*
X164581640Y-97982255D01*
X167731861Y-97982255D01*
X168560000Y-98810395D01*
X169388139Y-97982255D01*
X169314005Y-97736136D01*
X168776777Y-97543035D01*
X168206546Y-97570222D01*
X167805995Y-97736136D01*
X167731861Y-97982255D01*
X164581640Y-97982255D01*
X164373923Y-97774176D01*
X163846691Y-97555250D01*
X163275813Y-97554752D01*
X162748200Y-97772757D01*
X162344176Y-98176077D01*
X162125250Y-98703309D01*
X162124752Y-99274187D01*
X162147049Y-99328149D01*
X159435198Y-102040000D01*
X158294400Y-102040000D01*
X158153988Y-101829858D01*
X157720882Y-101540467D01*
X157210000Y-101438846D01*
X156699118Y-101540467D01*
X156266012Y-101829858D01*
X155976621Y-102262964D01*
X155875000Y-102773846D01*
X155875000Y-102826154D01*
X155976621Y-103337036D01*
X156266012Y-103770142D01*
X156450000Y-103893078D01*
X156450000Y-105085198D01*
X154495198Y-107040000D01*
X154447808Y-107040000D01*
X154731098Y-106757204D01*
X154934768Y-106266713D01*
X154935231Y-105735617D01*
X154732418Y-105244771D01*
X154485000Y-104996921D01*
X154485000Y-97166580D01*
X155586579Y-96065000D01*
X156207127Y-96065000D01*
X156452796Y-96311098D01*
X156452796Y-96311098D01*
G37*
X156452796Y-96311098D02*
X156943287Y-96514768D01*
X157474383Y-96515231D01*
X157965229Y-96312418D01*
X158193044Y-96085000D01*
X176733420Y-96085000D01*
X178120000Y-97471579D01*
X178120000Y-105028421D01*
X174833420Y-108315000D01*
X155369802Y-108315000D01*
X157747401Y-105937401D01*
X157912148Y-105690839D01*
X157970000Y-105400000D01*
X157970000Y-103893078D01*
X158153988Y-103770142D01*
X158294400Y-103560000D01*
X159750000Y-103560000D01*
X160040839Y-103502148D01*
X160287401Y-103337401D01*
X163221546Y-100403256D01*
X163273309Y-100424750D01*
X163800000Y-100425209D01*
X163800000Y-102452560D01*
X163560000Y-102452560D01*
X163324683Y-102496838D01*
X163108559Y-102635910D01*
X162963569Y-102848110D01*
X162912560Y-103100000D01*
X162912560Y-105700000D01*
X162956838Y-105935317D01*
X163095910Y-106151441D01*
X163308110Y-106296431D01*
X163560000Y-106347440D01*
X165560000Y-106347440D01*
X165795317Y-106303162D01*
X166011441Y-106164090D01*
X166125349Y-105997380D01*
X166591645Y-106259144D01*
X166719566Y-106290124D01*
X166973000Y-106170777D01*
X166973000Y-104527000D01*
X167227000Y-104527000D01*
X167227000Y-106170777D01*
X167480434Y-106290124D01*
X167608355Y-106259144D01*
X168166317Y-105945922D01*
X168561942Y-105443020D01*
X168735000Y-104827000D01*
X168735000Y-104527000D01*
X167227000Y-104527000D01*
X166973000Y-104527000D01*
X166953000Y-104527000D01*
X166953000Y-104273000D01*
X166973000Y-104273000D01*
X166973000Y-102629223D01*
X167227000Y-102629223D01*
X167227000Y-104273000D01*
X168735000Y-104273000D01*
X168735000Y-103973000D01*
X168561942Y-103356980D01*
X168166317Y-102854078D01*
X167608355Y-102540856D01*
X167480434Y-102509876D01*
X167227000Y-102629223D01*
X166973000Y-102629223D01*
X166719566Y-102509876D01*
X166591645Y-102540856D01*
X166123789Y-102803495D01*
X166024090Y-102648559D01*
X165811890Y-102503569D01*
X165560000Y-102452560D01*
X165320000Y-102452560D01*
X165320000Y-99997745D01*
X167731861Y-99997745D01*
X167805995Y-100243864D01*
X168343223Y-100436965D01*
X168913454Y-100409778D01*
X169314005Y-100243864D01*
X169388139Y-99997745D01*
X168560000Y-99169605D01*
X167731861Y-99997745D01*
X165320000Y-99997745D01*
X165320000Y-99990000D01*
X165262148Y-99699161D01*
X165097401Y-99452599D01*
X164973256Y-99328454D01*
X164994750Y-99276691D01*
X164995189Y-98773223D01*
X167113035Y-98773223D01*
X167140222Y-99343454D01*
X167306136Y-99744005D01*
X167552255Y-99818139D01*
X168380395Y-98990000D01*
X168739605Y-98990000D01*
X169567745Y-99818139D01*
X169813864Y-99744005D01*
X170006965Y-99206777D01*
X169979778Y-98636546D01*
X169813864Y-98235995D01*
X169567745Y-98161861D01*
X168739605Y-98990000D01*
X168380395Y-98990000D01*
X167552255Y-98161861D01*
X167306136Y-98235995D01*
X167113035Y-98773223D01*
X164995189Y-98773223D01*
X164995248Y-98705813D01*
X164777243Y-98178200D01*
X164581640Y-97982255D01*
X167731861Y-97982255D01*
X168560000Y-98810395D01*
X169388139Y-97982255D01*
X169314005Y-97736136D01*
X168776777Y-97543035D01*
X168206546Y-97570222D01*
X167805995Y-97736136D01*
X167731861Y-97982255D01*
X164581640Y-97982255D01*
X164373923Y-97774176D01*
X163846691Y-97555250D01*
X163275813Y-97554752D01*
X162748200Y-97772757D01*
X162344176Y-98176077D01*
X162125250Y-98703309D01*
X162124752Y-99274187D01*
X162147049Y-99328149D01*
X159435198Y-102040000D01*
X158294400Y-102040000D01*
X158153988Y-101829858D01*
X157720882Y-101540467D01*
X157210000Y-101438846D01*
X156699118Y-101540467D01*
X156266012Y-101829858D01*
X155976621Y-102262964D01*
X155875000Y-102773846D01*
X155875000Y-102826154D01*
X155976621Y-103337036D01*
X156266012Y-103770142D01*
X156450000Y-103893078D01*
X156450000Y-105085198D01*
X154495198Y-107040000D01*
X154447808Y-107040000D01*
X154731098Y-106757204D01*
X154934768Y-106266713D01*
X154935231Y-105735617D01*
X154732418Y-105244771D01*
X154485000Y-104996921D01*
X154485000Y-97166580D01*
X155586579Y-96065000D01*
X156207127Y-96065000D01*
X156452796Y-96311098D01*
G36*
X133473258Y-45916319D02*
X133472743Y-46507089D01*
X133564022Y-46728001D01*
X130800099Y-46728001D01*
X130509259Y-46785853D01*
X130262698Y-46950600D01*
X130249421Y-46963877D01*
X130134599Y-47040598D01*
X118178843Y-58996355D01*
X117940000Y-58948846D01*
X117429118Y-59050467D01*
X116996012Y-59339858D01*
X116706621Y-59772964D01*
X116605000Y-60283846D01*
X116605000Y-60336154D01*
X116706621Y-60847036D01*
X116996012Y-61280142D01*
X117429118Y-61569533D01*
X117940000Y-61671154D01*
X118178843Y-61623645D01*
X119942599Y-63387401D01*
X120189160Y-63552148D01*
X120237414Y-63561746D01*
X120480000Y-63610000D01*
X126011198Y-63610000D01*
X125671843Y-63949355D01*
X125433000Y-63901846D01*
X124922118Y-64003467D01*
X124489012Y-64292858D01*
X124199621Y-64725964D01*
X124098000Y-65236846D01*
X124098000Y-65289154D01*
X124199621Y-65800036D01*
X124489012Y-66233142D01*
X124922118Y-66522533D01*
X125433000Y-66624154D01*
X125943882Y-66522533D01*
X126376988Y-66233142D01*
X126666379Y-65800036D01*
X126768000Y-65289154D01*
X126768000Y-65236846D01*
X126729170Y-65041632D01*
X127525802Y-64245000D01*
X128170198Y-64245000D01*
X126927599Y-65487599D01*
X126762852Y-65734161D01*
X126705000Y-66025000D01*
X126705000Y-72465586D01*
X126565418Y-72127771D01*
X126190204Y-71751902D01*
X125699713Y-71548232D01*
X125168617Y-71547769D01*
X124677771Y-71750582D01*
X124301902Y-72125796D01*
X124098232Y-72616287D01*
X124097769Y-73147383D01*
X124300582Y-73638229D01*
X124673000Y-74011297D01*
X124673000Y-79445198D01*
X113744999Y-90373199D01*
X113580252Y-90619761D01*
X113522400Y-90910600D01*
X113522400Y-92370641D01*
X113320755Y-92571935D01*
X113147597Y-92988944D01*
X113147203Y-93440475D01*
X113165089Y-93483761D01*
X113139400Y-93509450D01*
X113139400Y-94358700D01*
X113988650Y-94358700D01*
X114014098Y-94333252D01*
X114055644Y-94350503D01*
X114417517Y-94350819D01*
X114417203Y-94710475D01*
X114589633Y-95127786D01*
X114908635Y-95447345D01*
X115325644Y-95620503D01*
X115435719Y-95620599D01*
X117016900Y-97201779D01*
X117016900Y-100321521D01*
X115114210Y-102224210D01*
X114922367Y-102511325D01*
X114922367Y-102511326D01*
X114883717Y-102705627D01*
X114755808Y-102791093D01*
X114664090Y-102648559D01*
X114451890Y-102503569D01*
X114200000Y-102452560D01*
X112200000Y-102452560D01*
X111964683Y-102496838D01*
X111748559Y-102635910D01*
X111603569Y-102848110D01*
X111552560Y-103100000D01*
X111552560Y-103515000D01*
X108384130Y-103515000D01*
X105857717Y-100988587D01*
X105913898Y-100932504D01*
X106117568Y-100442013D01*
X106118031Y-99910917D01*
X105915218Y-99420071D01*
X105540004Y-99044202D01*
X105049513Y-98840532D01*
X104518417Y-98840069D01*
X104027571Y-99042882D01*
X103651702Y-99418096D01*
X103448032Y-99908587D01*
X103447569Y-100439683D01*
X103650382Y-100930529D01*
X103901060Y-101181645D01*
X103952222Y-101438846D01*
X103965167Y-101503924D01*
X103997744Y-101552679D01*
X104157010Y-101791039D01*
X107391759Y-105025787D01*
X107391761Y-105025790D01*
X107678876Y-105217633D01*
X107735067Y-105228810D01*
X108017551Y-105285001D01*
X108017556Y-105285000D01*
X111552560Y-105285000D01*
X111552560Y-105700000D01*
X111596838Y-105935317D01*
X111735910Y-106151441D01*
X111948110Y-106296431D01*
X112200000Y-106347440D01*
X114200000Y-106347440D01*
X114435317Y-106303162D01*
X114651441Y-106164090D01*
X114756951Y-106009671D01*
X115114313Y-106248452D01*
X115740000Y-106372909D01*
X116365687Y-106248452D01*
X116896120Y-105894029D01*
X117250543Y-105363596D01*
X117375000Y-104737909D01*
X117375000Y-104062091D01*
X117250543Y-103436404D01*
X116911937Y-102929643D01*
X118527687Y-101313892D01*
X118527690Y-101313890D01*
X118719533Y-101026775D01*
X118786900Y-100688100D01*
X118786900Y-96835205D01*
X118786901Y-96835200D01*
X118719533Y-96496526D01*
X118719533Y-96496525D01*
X118527690Y-96209410D01*
X118527687Y-96209408D01*
X116687503Y-94369223D01*
X116687597Y-94260925D01*
X116515167Y-93843614D01*
X116196165Y-93524055D01*
X115779156Y-93350897D01*
X115417283Y-93350581D01*
X115417597Y-92990925D01*
X115245167Y-92573614D01*
X115042400Y-92370493D01*
X115042400Y-91225402D01*
X125970401Y-80297401D01*
X126135148Y-80050839D01*
X126193000Y-79760000D01*
X126193000Y-74010655D01*
X126564098Y-73640204D01*
X126705000Y-73300875D01*
X126705000Y-103535000D01*
X126762852Y-103825839D01*
X126927599Y-104072401D01*
X131170198Y-108315000D01*
X109766579Y-108315000D01*
X96223030Y-94771450D01*
X111877400Y-94771450D01*
X111877400Y-95112009D01*
X111974073Y-95345398D01*
X112152701Y-95524027D01*
X112386090Y-95620700D01*
X112726650Y-95620700D01*
X112885400Y-95461950D01*
X112885400Y-94612700D01*
X113139400Y-94612700D01*
X113139400Y-95461950D01*
X113298150Y-95620700D01*
X113638710Y-95620700D01*
X113872099Y-95524027D01*
X114050727Y-95345398D01*
X114147400Y-95112009D01*
X114147400Y-94771450D01*
X113988650Y-94612700D01*
X113139400Y-94612700D01*
X112885400Y-94612700D01*
X112036150Y-94612700D01*
X111877400Y-94771450D01*
X96223030Y-94771450D01*
X96085000Y-94633420D01*
X96085000Y-85920000D01*
X97323173Y-85920000D01*
X97460951Y-86612657D01*
X97853310Y-87199863D01*
X98440516Y-87592222D01*
X98673390Y-87638543D01*
X98682367Y-87683675D01*
X98703500Y-87715303D01*
X98703500Y-90053395D01*
X98703499Y-90053400D01*
X98748147Y-90277853D01*
X98770867Y-90392075D01*
X98923001Y-90619761D01*
X98962710Y-90679190D01*
X101464608Y-93181087D01*
X101464610Y-93181090D01*
X101751725Y-93372933D01*
X101807916Y-93384110D01*
X102090400Y-93440301D01*
X102090405Y-93440300D01*
X103781922Y-93440300D01*
X103838812Y-93525442D01*
X104271918Y-93814833D01*
X104782800Y-93916454D01*
X105069674Y-93859391D01*
X111877400Y-93859391D01*
X111877400Y-94199950D01*
X112036150Y-94358700D01*
X112885400Y-94358700D01*
X112885400Y-93509450D01*
X112726650Y-93350700D01*
X112386090Y-93350700D01*
X112152701Y-93447373D01*
X111974073Y-93626002D01*
X111877400Y-93859391D01*
X105069674Y-93859391D01*
X105293682Y-93814833D01*
X105726788Y-93525442D01*
X106016179Y-93092336D01*
X106117800Y-92581454D01*
X106117800Y-92529146D01*
X106016179Y-92018264D01*
X105726788Y-91585158D01*
X105293682Y-91295767D01*
X104782800Y-91194146D01*
X104271918Y-91295767D01*
X103838812Y-91585158D01*
X103781922Y-91670300D01*
X102456979Y-91670300D01*
X100473500Y-89686820D01*
X100473500Y-87609325D01*
X100559484Y-87592222D01*
X101146690Y-87199863D01*
X101539049Y-86612657D01*
X101676827Y-85920000D01*
X101539049Y-85227343D01*
X101146690Y-84640137D01*
X100559484Y-84247778D01*
X99866827Y-84110000D01*
X99133173Y-84110000D01*
X98440516Y-84247778D01*
X97853310Y-84640137D01*
X97460951Y-85227343D01*
X97323173Y-85920000D01*
X96085000Y-85920000D01*
X96085000Y-82367885D01*
X97411557Y-82367885D01*
X97454177Y-82535324D01*
X97805334Y-83150060D01*
X98365010Y-83583621D01*
X99048000Y-83770000D01*
X99373000Y-83770000D01*
X99373000Y-82087000D01*
X99627000Y-82087000D01*
X99627000Y-83770000D01*
X99952000Y-83770000D01*
X100634990Y-83583621D01*
X101194666Y-83150060D01*
X101545823Y-82535324D01*
X101588443Y-82367885D01*
X101471359Y-82087000D01*
X99627000Y-82087000D01*
X99373000Y-82087000D01*
X97528641Y-82087000D01*
X97411557Y-82367885D01*
X96085000Y-82367885D01*
X96085000Y-81552115D01*
X97411557Y-81552115D01*
X97528641Y-81833000D01*
X99373000Y-81833000D01*
X99373000Y-80150000D01*
X99627000Y-80150000D01*
X99627000Y-81833000D01*
X101471359Y-81833000D01*
X101588443Y-81552115D01*
X101545823Y-81384676D01*
X101194666Y-80769940D01*
X100634990Y-80336379D01*
X99952000Y-80150000D01*
X99627000Y-80150000D01*
X99373000Y-80150000D01*
X99048000Y-80150000D01*
X98365010Y-80336379D01*
X97805334Y-80769940D01*
X97454177Y-81384676D01*
X97411557Y-81552115D01*
X96085000Y-81552115D01*
X96085000Y-78407885D01*
X97411557Y-78407885D01*
X97454177Y-78575324D01*
X97805334Y-79190060D01*
X98365010Y-79623621D01*
X99048000Y-79810000D01*
X99373000Y-79810000D01*
X99373000Y-78127000D01*
X99627000Y-78127000D01*
X99627000Y-79810000D01*
X99952000Y-79810000D01*
X100634990Y-79623621D01*
X101194666Y-79190060D01*
X101293097Y-79017745D01*
X117111861Y-79017745D01*
X117185995Y-79263864D01*
X117723223Y-79456965D01*
X118293454Y-79429778D01*
X118694005Y-79263864D01*
X118768139Y-79017745D01*
X117940000Y-78189605D01*
X117111861Y-79017745D01*
X101293097Y-79017745D01*
X101545823Y-78575324D01*
X101588443Y-78407885D01*
X101471359Y-78127000D01*
X99627000Y-78127000D01*
X99373000Y-78127000D01*
X97528641Y-78127000D01*
X97411557Y-78407885D01*
X96085000Y-78407885D01*
X96085000Y-77592115D01*
X97411557Y-77592115D01*
X97528641Y-77873000D01*
X99373000Y-77873000D01*
X99373000Y-76190000D01*
X99627000Y-76190000D01*
X99627000Y-77873000D01*
X101471359Y-77873000D01*
X101506896Y-77787745D01*
X108221861Y-77787745D01*
X108295995Y-78033864D01*
X108833223Y-78226965D01*
X109403454Y-78199778D01*
X109804005Y-78033864D01*
X109876488Y-77793223D01*
X116493035Y-77793223D01*
X116520222Y-78363454D01*
X116686136Y-78764005D01*
X116932255Y-78838139D01*
X117760395Y-78010000D01*
X118119605Y-78010000D01*
X118947745Y-78838139D01*
X119193864Y-78764005D01*
X119386965Y-78226777D01*
X119359778Y-77656546D01*
X119193864Y-77255995D01*
X118947745Y-77181861D01*
X118119605Y-78010000D01*
X117760395Y-78010000D01*
X116932255Y-77181861D01*
X116686136Y-77255995D01*
X116493035Y-77793223D01*
X109876488Y-77793223D01*
X109878139Y-77787745D01*
X109050000Y-76959605D01*
X108221861Y-77787745D01*
X101506896Y-77787745D01*
X101588443Y-77592115D01*
X101545823Y-77424676D01*
X101194666Y-76809940D01*
X100876184Y-76563223D01*
X107603035Y-76563223D01*
X107630222Y-77133454D01*
X107796136Y-77534005D01*
X108042255Y-77608139D01*
X108870395Y-76780000D01*
X109229605Y-76780000D01*
X110057745Y-77608139D01*
X110303864Y-77534005D01*
X110494995Y-77002255D01*
X117111861Y-77002255D01*
X117940000Y-77830395D01*
X118768139Y-77002255D01*
X118694005Y-76756136D01*
X118156777Y-76563035D01*
X117586546Y-76590222D01*
X117185995Y-76756136D01*
X117111861Y-77002255D01*
X110494995Y-77002255D01*
X110496965Y-76996777D01*
X110469778Y-76426546D01*
X110303864Y-76025995D01*
X110057745Y-75951861D01*
X109229605Y-76780000D01*
X108870395Y-76780000D01*
X108042255Y-75951861D01*
X107796136Y-76025995D01*
X107603035Y-76563223D01*
X100876184Y-76563223D01*
X100634990Y-76376379D01*
X99952000Y-76190000D01*
X99627000Y-76190000D01*
X99373000Y-76190000D01*
X99048000Y-76190000D01*
X98365010Y-76376379D01*
X97805334Y-76809940D01*
X97454177Y-77424676D01*
X97411557Y-77592115D01*
X96085000Y-77592115D01*
X96085000Y-76706580D01*
X97388037Y-75403543D01*
X97396838Y-75450317D01*
X97535910Y-75666441D01*
X97748110Y-75811431D01*
X98000000Y-75862440D01*
X101000000Y-75862440D01*
X101235317Y-75818162D01*
X101451441Y-75679090D01*
X101596431Y-75466890D01*
X101647440Y-75215000D01*
X101647440Y-74925000D01*
X107602560Y-74925000D01*
X107602560Y-75080000D01*
X107646838Y-75315317D01*
X107785910Y-75531441D01*
X107998110Y-75676431D01*
X108236201Y-75724646D01*
X108221861Y-75772255D01*
X109050000Y-76600395D01*
X109878139Y-75772255D01*
X109863855Y-75724833D01*
X110085317Y-75683162D01*
X110301441Y-75544090D01*
X110446431Y-75331890D01*
X110480227Y-75165000D01*
X116669995Y-75165000D01*
X116670000Y-75165001D01*
X116955858Y-75108139D01*
X117008675Y-75097633D01*
X117295790Y-74905790D01*
X117295791Y-74905789D01*
X117756739Y-74444840D01*
X118224187Y-74445248D01*
X118751800Y-74227243D01*
X119155824Y-73823923D01*
X119374750Y-73296691D01*
X119375248Y-72725813D01*
X119157243Y-72198200D01*
X118825000Y-71865377D01*
X118825000Y-68932873D01*
X119071098Y-68687204D01*
X119274768Y-68196713D01*
X119275231Y-67665617D01*
X119072418Y-67174771D01*
X118697204Y-66798902D01*
X118206713Y-66595232D01*
X117675617Y-66594769D01*
X117184771Y-66797582D01*
X116808902Y-67172796D01*
X116605232Y-67663287D01*
X116604769Y-68194383D01*
X116807582Y-68685229D01*
X117055000Y-68933079D01*
X117055000Y-71865829D01*
X116724176Y-72196077D01*
X116505250Y-72723309D01*
X116504840Y-73193581D01*
X116303420Y-73395000D01*
X110481446Y-73395000D01*
X110453162Y-73244683D01*
X110314090Y-73028559D01*
X110101890Y-72883569D01*
X109935000Y-72849773D01*
X109935000Y-66366580D01*
X112775446Y-63526133D01*
X112850790Y-63475790D01*
X112850791Y-63475789D01*
X129436641Y-46889938D01*
X129513190Y-46838790D01*
X130904979Y-45447000D01*
X133668136Y-45447000D01*
X133473258Y-45916319D01*
X133473258Y-45916319D01*
G37*
X133473258Y-45916319D02*
X133472743Y-46507089D01*
X133564022Y-46728001D01*
X130800099Y-46728001D01*
X130509259Y-46785853D01*
X130262698Y-46950600D01*
X130249421Y-46963877D01*
X130134599Y-47040598D01*
X118178843Y-58996355D01*
X117940000Y-58948846D01*
X117429118Y-59050467D01*
X116996012Y-59339858D01*
X116706621Y-59772964D01*
X116605000Y-60283846D01*
X116605000Y-60336154D01*
X116706621Y-60847036D01*
X116996012Y-61280142D01*
X117429118Y-61569533D01*
X117940000Y-61671154D01*
X118178843Y-61623645D01*
X119942599Y-63387401D01*
X120189160Y-63552148D01*
X120237414Y-63561746D01*
X120480000Y-63610000D01*
X126011198Y-63610000D01*
X125671843Y-63949355D01*
X125433000Y-63901846D01*
X124922118Y-64003467D01*
X124489012Y-64292858D01*
X124199621Y-64725964D01*
X124098000Y-65236846D01*
X124098000Y-65289154D01*
X124199621Y-65800036D01*
X124489012Y-66233142D01*
X124922118Y-66522533D01*
X125433000Y-66624154D01*
X125943882Y-66522533D01*
X126376988Y-66233142D01*
X126666379Y-65800036D01*
X126768000Y-65289154D01*
X126768000Y-65236846D01*
X126729170Y-65041632D01*
X127525802Y-64245000D01*
X128170198Y-64245000D01*
X126927599Y-65487599D01*
X126762852Y-65734161D01*
X126705000Y-66025000D01*
X126705000Y-72465586D01*
X126565418Y-72127771D01*
X126190204Y-71751902D01*
X125699713Y-71548232D01*
X125168617Y-71547769D01*
X124677771Y-71750582D01*
X124301902Y-72125796D01*
X124098232Y-72616287D01*
X124097769Y-73147383D01*
X124300582Y-73638229D01*
X124673000Y-74011297D01*
X124673000Y-79445198D01*
X113744999Y-90373199D01*
X113580252Y-90619761D01*
X113522400Y-90910600D01*
X113522400Y-92370641D01*
X113320755Y-92571935D01*
X113147597Y-92988944D01*
X113147203Y-93440475D01*
X113165089Y-93483761D01*
X113139400Y-93509450D01*
X113139400Y-94358700D01*
X113988650Y-94358700D01*
X114014098Y-94333252D01*
X114055644Y-94350503D01*
X114417517Y-94350819D01*
X114417203Y-94710475D01*
X114589633Y-95127786D01*
X114908635Y-95447345D01*
X115325644Y-95620503D01*
X115435719Y-95620599D01*
X117016900Y-97201779D01*
X117016900Y-100321521D01*
X115114210Y-102224210D01*
X114922367Y-102511325D01*
X114922367Y-102511326D01*
X114883717Y-102705627D01*
X114755808Y-102791093D01*
X114664090Y-102648559D01*
X114451890Y-102503569D01*
X114200000Y-102452560D01*
X112200000Y-102452560D01*
X111964683Y-102496838D01*
X111748559Y-102635910D01*
X111603569Y-102848110D01*
X111552560Y-103100000D01*
X111552560Y-103515000D01*
X108384130Y-103515000D01*
X105857717Y-100988587D01*
X105913898Y-100932504D01*
X106117568Y-100442013D01*
X106118031Y-99910917D01*
X105915218Y-99420071D01*
X105540004Y-99044202D01*
X105049513Y-98840532D01*
X104518417Y-98840069D01*
X104027571Y-99042882D01*
X103651702Y-99418096D01*
X103448032Y-99908587D01*
X103447569Y-100439683D01*
X103650382Y-100930529D01*
X103901060Y-101181645D01*
X103952222Y-101438846D01*
X103965167Y-101503924D01*
X103997744Y-101552679D01*
X104157010Y-101791039D01*
X107391759Y-105025787D01*
X107391761Y-105025790D01*
X107678876Y-105217633D01*
X107735067Y-105228810D01*
X108017551Y-105285001D01*
X108017556Y-105285000D01*
X111552560Y-105285000D01*
X111552560Y-105700000D01*
X111596838Y-105935317D01*
X111735910Y-106151441D01*
X111948110Y-106296431D01*
X112200000Y-106347440D01*
X114200000Y-106347440D01*
X114435317Y-106303162D01*
X114651441Y-106164090D01*
X114756951Y-106009671D01*
X115114313Y-106248452D01*
X115740000Y-106372909D01*
X116365687Y-106248452D01*
X116896120Y-105894029D01*
X117250543Y-105363596D01*
X117375000Y-104737909D01*
X117375000Y-104062091D01*
X117250543Y-103436404D01*
X116911937Y-102929643D01*
X118527687Y-101313892D01*
X118527690Y-101313890D01*
X118719533Y-101026775D01*
X118786900Y-100688100D01*
X118786900Y-96835205D01*
X118786901Y-96835200D01*
X118719533Y-96496526D01*
X118719533Y-96496525D01*
X118527690Y-96209410D01*
X118527687Y-96209408D01*
X116687503Y-94369223D01*
X116687597Y-94260925D01*
X116515167Y-93843614D01*
X116196165Y-93524055D01*
X115779156Y-93350897D01*
X115417283Y-93350581D01*
X115417597Y-92990925D01*
X115245167Y-92573614D01*
X115042400Y-92370493D01*
X115042400Y-91225402D01*
X125970401Y-80297401D01*
X126135148Y-80050839D01*
X126193000Y-79760000D01*
X126193000Y-74010655D01*
X126564098Y-73640204D01*
X126705000Y-73300875D01*
X126705000Y-103535000D01*
X126762852Y-103825839D01*
X126927599Y-104072401D01*
X131170198Y-108315000D01*
X109766579Y-108315000D01*
X96223030Y-94771450D01*
X111877400Y-94771450D01*
X111877400Y-95112009D01*
X111974073Y-95345398D01*
X112152701Y-95524027D01*
X112386090Y-95620700D01*
X112726650Y-95620700D01*
X112885400Y-95461950D01*
X112885400Y-94612700D01*
X113139400Y-94612700D01*
X113139400Y-95461950D01*
X113298150Y-95620700D01*
X113638710Y-95620700D01*
X113872099Y-95524027D01*
X114050727Y-95345398D01*
X114147400Y-95112009D01*
X114147400Y-94771450D01*
X113988650Y-94612700D01*
X113139400Y-94612700D01*
X112885400Y-94612700D01*
X112036150Y-94612700D01*
X111877400Y-94771450D01*
X96223030Y-94771450D01*
X96085000Y-94633420D01*
X96085000Y-85920000D01*
X97323173Y-85920000D01*
X97460951Y-86612657D01*
X97853310Y-87199863D01*
X98440516Y-87592222D01*
X98673390Y-87638543D01*
X98682367Y-87683675D01*
X98703500Y-87715303D01*
X98703500Y-90053395D01*
X98703499Y-90053400D01*
X98748147Y-90277853D01*
X98770867Y-90392075D01*
X98923001Y-90619761D01*
X98962710Y-90679190D01*
X101464608Y-93181087D01*
X101464610Y-93181090D01*
X101751725Y-93372933D01*
X101807916Y-93384110D01*
X102090400Y-93440301D01*
X102090405Y-93440300D01*
X103781922Y-93440300D01*
X103838812Y-93525442D01*
X104271918Y-93814833D01*
X104782800Y-93916454D01*
X105069674Y-93859391D01*
X111877400Y-93859391D01*
X111877400Y-94199950D01*
X112036150Y-94358700D01*
X112885400Y-94358700D01*
X112885400Y-93509450D01*
X112726650Y-93350700D01*
X112386090Y-93350700D01*
X112152701Y-93447373D01*
X111974073Y-93626002D01*
X111877400Y-93859391D01*
X105069674Y-93859391D01*
X105293682Y-93814833D01*
X105726788Y-93525442D01*
X106016179Y-93092336D01*
X106117800Y-92581454D01*
X106117800Y-92529146D01*
X106016179Y-92018264D01*
X105726788Y-91585158D01*
X105293682Y-91295767D01*
X104782800Y-91194146D01*
X104271918Y-91295767D01*
X103838812Y-91585158D01*
X103781922Y-91670300D01*
X102456979Y-91670300D01*
X100473500Y-89686820D01*
X100473500Y-87609325D01*
X100559484Y-87592222D01*
X101146690Y-87199863D01*
X101539049Y-86612657D01*
X101676827Y-85920000D01*
X101539049Y-85227343D01*
X101146690Y-84640137D01*
X100559484Y-84247778D01*
X99866827Y-84110000D01*
X99133173Y-84110000D01*
X98440516Y-84247778D01*
X97853310Y-84640137D01*
X97460951Y-85227343D01*
X97323173Y-85920000D01*
X96085000Y-85920000D01*
X96085000Y-82367885D01*
X97411557Y-82367885D01*
X97454177Y-82535324D01*
X97805334Y-83150060D01*
X98365010Y-83583621D01*
X99048000Y-83770000D01*
X99373000Y-83770000D01*
X99373000Y-82087000D01*
X99627000Y-82087000D01*
X99627000Y-83770000D01*
X99952000Y-83770000D01*
X100634990Y-83583621D01*
X101194666Y-83150060D01*
X101545823Y-82535324D01*
X101588443Y-82367885D01*
X101471359Y-82087000D01*
X99627000Y-82087000D01*
X99373000Y-82087000D01*
X97528641Y-82087000D01*
X97411557Y-82367885D01*
X96085000Y-82367885D01*
X96085000Y-81552115D01*
X97411557Y-81552115D01*
X97528641Y-81833000D01*
X99373000Y-81833000D01*
X99373000Y-80150000D01*
X99627000Y-80150000D01*
X99627000Y-81833000D01*
X101471359Y-81833000D01*
X101588443Y-81552115D01*
X101545823Y-81384676D01*
X101194666Y-80769940D01*
X100634990Y-80336379D01*
X99952000Y-80150000D01*
X99627000Y-80150000D01*
X99373000Y-80150000D01*
X99048000Y-80150000D01*
X98365010Y-80336379D01*
X97805334Y-80769940D01*
X97454177Y-81384676D01*
X97411557Y-81552115D01*
X96085000Y-81552115D01*
X96085000Y-78407885D01*
X97411557Y-78407885D01*
X97454177Y-78575324D01*
X97805334Y-79190060D01*
X98365010Y-79623621D01*
X99048000Y-79810000D01*
X99373000Y-79810000D01*
X99373000Y-78127000D01*
X99627000Y-78127000D01*
X99627000Y-79810000D01*
X99952000Y-79810000D01*
X100634990Y-79623621D01*
X101194666Y-79190060D01*
X101293097Y-79017745D01*
X117111861Y-79017745D01*
X117185995Y-79263864D01*
X117723223Y-79456965D01*
X118293454Y-79429778D01*
X118694005Y-79263864D01*
X118768139Y-79017745D01*
X117940000Y-78189605D01*
X117111861Y-79017745D01*
X101293097Y-79017745D01*
X101545823Y-78575324D01*
X101588443Y-78407885D01*
X101471359Y-78127000D01*
X99627000Y-78127000D01*
X99373000Y-78127000D01*
X97528641Y-78127000D01*
X97411557Y-78407885D01*
X96085000Y-78407885D01*
X96085000Y-77592115D01*
X97411557Y-77592115D01*
X97528641Y-77873000D01*
X99373000Y-77873000D01*
X99373000Y-76190000D01*
X99627000Y-76190000D01*
X99627000Y-77873000D01*
X101471359Y-77873000D01*
X101506896Y-77787745D01*
X108221861Y-77787745D01*
X108295995Y-78033864D01*
X108833223Y-78226965D01*
X109403454Y-78199778D01*
X109804005Y-78033864D01*
X109876488Y-77793223D01*
X116493035Y-77793223D01*
X116520222Y-78363454D01*
X116686136Y-78764005D01*
X116932255Y-78838139D01*
X117760395Y-78010000D01*
X118119605Y-78010000D01*
X118947745Y-78838139D01*
X119193864Y-78764005D01*
X119386965Y-78226777D01*
X119359778Y-77656546D01*
X119193864Y-77255995D01*
X118947745Y-77181861D01*
X118119605Y-78010000D01*
X117760395Y-78010000D01*
X116932255Y-77181861D01*
X116686136Y-77255995D01*
X116493035Y-77793223D01*
X109876488Y-77793223D01*
X109878139Y-77787745D01*
X109050000Y-76959605D01*
X108221861Y-77787745D01*
X101506896Y-77787745D01*
X101588443Y-77592115D01*
X101545823Y-77424676D01*
X101194666Y-76809940D01*
X100876184Y-76563223D01*
X107603035Y-76563223D01*
X107630222Y-77133454D01*
X107796136Y-77534005D01*
X108042255Y-77608139D01*
X108870395Y-76780000D01*
X109229605Y-76780000D01*
X110057745Y-77608139D01*
X110303864Y-77534005D01*
X110494995Y-77002255D01*
X117111861Y-77002255D01*
X117940000Y-77830395D01*
X118768139Y-77002255D01*
X118694005Y-76756136D01*
X118156777Y-76563035D01*
X117586546Y-76590222D01*
X117185995Y-76756136D01*
X117111861Y-77002255D01*
X110494995Y-77002255D01*
X110496965Y-76996777D01*
X110469778Y-76426546D01*
X110303864Y-76025995D01*
X110057745Y-75951861D01*
X109229605Y-76780000D01*
X108870395Y-76780000D01*
X108042255Y-75951861D01*
X107796136Y-76025995D01*
X107603035Y-76563223D01*
X100876184Y-76563223D01*
X100634990Y-76376379D01*
X99952000Y-76190000D01*
X99627000Y-76190000D01*
X99373000Y-76190000D01*
X99048000Y-76190000D01*
X98365010Y-76376379D01*
X97805334Y-76809940D01*
X97454177Y-77424676D01*
X97411557Y-77592115D01*
X96085000Y-77592115D01*
X96085000Y-76706580D01*
X97388037Y-75403543D01*
X97396838Y-75450317D01*
X97535910Y-75666441D01*
X97748110Y-75811431D01*
X98000000Y-75862440D01*
X101000000Y-75862440D01*
X101235317Y-75818162D01*
X101451441Y-75679090D01*
X101596431Y-75466890D01*
X101647440Y-75215000D01*
X101647440Y-74925000D01*
X107602560Y-74925000D01*
X107602560Y-75080000D01*
X107646838Y-75315317D01*
X107785910Y-75531441D01*
X107998110Y-75676431D01*
X108236201Y-75724646D01*
X108221861Y-75772255D01*
X109050000Y-76600395D01*
X109878139Y-75772255D01*
X109863855Y-75724833D01*
X110085317Y-75683162D01*
X110301441Y-75544090D01*
X110446431Y-75331890D01*
X110480227Y-75165000D01*
X116669995Y-75165000D01*
X116670000Y-75165001D01*
X116955858Y-75108139D01*
X117008675Y-75097633D01*
X117295790Y-74905790D01*
X117295791Y-74905789D01*
X117756739Y-74444840D01*
X118224187Y-74445248D01*
X118751800Y-74227243D01*
X119155824Y-73823923D01*
X119374750Y-73296691D01*
X119375248Y-72725813D01*
X119157243Y-72198200D01*
X118825000Y-71865377D01*
X118825000Y-68932873D01*
X119071098Y-68687204D01*
X119274768Y-68196713D01*
X119275231Y-67665617D01*
X119072418Y-67174771D01*
X118697204Y-66798902D01*
X118206713Y-66595232D01*
X117675617Y-66594769D01*
X117184771Y-66797582D01*
X116808902Y-67172796D01*
X116605232Y-67663287D01*
X116604769Y-68194383D01*
X116807582Y-68685229D01*
X117055000Y-68933079D01*
X117055000Y-71865829D01*
X116724176Y-72196077D01*
X116505250Y-72723309D01*
X116504840Y-73193581D01*
X116303420Y-73395000D01*
X110481446Y-73395000D01*
X110453162Y-73244683D01*
X110314090Y-73028559D01*
X110101890Y-72883569D01*
X109935000Y-72849773D01*
X109935000Y-66366580D01*
X112775446Y-63526133D01*
X112850790Y-63475790D01*
X112850791Y-63475789D01*
X129436641Y-46889938D01*
X129513190Y-46838790D01*
X130904979Y-45447000D01*
X133668136Y-45447000D01*
X133473258Y-45916319D01*
G36*
X135554990Y-91699792D02*
X135554990Y-92952560D01*
X133300000Y-92952560D01*
X133064683Y-92996838D01*
X132848559Y-93135910D01*
X132703569Y-93348110D01*
X132652560Y-93600000D01*
X132652560Y-96400000D01*
X132696838Y-96635317D01*
X132835910Y-96851441D01*
X133048110Y-96996431D01*
X133300000Y-97047440D01*
X135700000Y-97047440D01*
X135935317Y-97003162D01*
X136151441Y-96864090D01*
X136296431Y-96651890D01*
X136347440Y-96400000D01*
X136347440Y-95402242D01*
X141442025Y-100496827D01*
X141118800Y-100980567D01*
X141005000Y-101552679D01*
X141005000Y-102447321D01*
X141118800Y-103019433D01*
X141442875Y-103504446D01*
X141740000Y-103702978D01*
X141740000Y-104791354D01*
X141688200Y-104812757D01*
X141284176Y-105216077D01*
X141065250Y-105743309D01*
X141064752Y-106314187D01*
X141282757Y-106841800D01*
X141480612Y-107040000D01*
X138555636Y-107040000D01*
X138622622Y-106973014D01*
X138507747Y-106858139D01*
X138753864Y-106784005D01*
X138946965Y-106246777D01*
X138919778Y-105676546D01*
X138753864Y-105275995D01*
X138507745Y-105201861D01*
X137679605Y-106030000D01*
X137693748Y-106044142D01*
X137514142Y-106223748D01*
X137500000Y-106209605D01*
X137485858Y-106223748D01*
X137306252Y-106044142D01*
X137320395Y-106030000D01*
X136492255Y-105201861D01*
X136246136Y-105275995D01*
X136053035Y-105813223D01*
X136080222Y-106383454D01*
X136246136Y-106784005D01*
X136492253Y-106858139D01*
X136377378Y-106973014D01*
X136444364Y-107040000D01*
X132044802Y-107040000D01*
X130027057Y-105022255D01*
X136671861Y-105022255D01*
X137500000Y-105850395D01*
X138328139Y-105022255D01*
X138254005Y-104776136D01*
X137716777Y-104583035D01*
X137146546Y-104610222D01*
X136745995Y-104776136D01*
X136671861Y-105022255D01*
X130027057Y-105022255D01*
X128225000Y-103220198D01*
X128225000Y-102127000D01*
X136005000Y-102127000D01*
X136005000Y-102537000D01*
X136167401Y-103099444D01*
X136532678Y-103556927D01*
X137045221Y-103839800D01*
X137141539Y-103861389D01*
X137373000Y-103740201D01*
X137373000Y-102127000D01*
X137627000Y-102127000D01*
X137627000Y-103740201D01*
X137858461Y-103861389D01*
X137954779Y-103839800D01*
X138467322Y-103556927D01*
X138832599Y-103099444D01*
X138995000Y-102537000D01*
X138995000Y-102127000D01*
X137627000Y-102127000D01*
X137373000Y-102127000D01*
X136005000Y-102127000D01*
X128225000Y-102127000D01*
X128225000Y-101463000D01*
X136005000Y-101463000D01*
X136005000Y-101873000D01*
X137373000Y-101873000D01*
X137373000Y-100259799D01*
X137627000Y-100259799D01*
X137627000Y-101873000D01*
X138995000Y-101873000D01*
X138995000Y-101463000D01*
X138832599Y-100900556D01*
X138467322Y-100443073D01*
X137954779Y-100160200D01*
X137858461Y-100138611D01*
X137627000Y-100259799D01*
X137373000Y-100259799D01*
X137141539Y-100138611D01*
X137045221Y-100160200D01*
X136532678Y-100443073D01*
X136167401Y-100900556D01*
X136005000Y-101463000D01*
X128225000Y-101463000D01*
X128225000Y-84369802D01*
X135554990Y-91699792D01*
X135554990Y-91699792D01*
G37*
X135554990Y-91699792D02*
X135554990Y-92952560D01*
X133300000Y-92952560D01*
X133064683Y-92996838D01*
X132848559Y-93135910D01*
X132703569Y-93348110D01*
X132652560Y-93600000D01*
X132652560Y-96400000D01*
X132696838Y-96635317D01*
X132835910Y-96851441D01*
X133048110Y-96996431D01*
X133300000Y-97047440D01*
X135700000Y-97047440D01*
X135935317Y-97003162D01*
X136151441Y-96864090D01*
X136296431Y-96651890D01*
X136347440Y-96400000D01*
X136347440Y-95402242D01*
X141442025Y-100496827D01*
X141118800Y-100980567D01*
X141005000Y-101552679D01*
X141005000Y-102447321D01*
X141118800Y-103019433D01*
X141442875Y-103504446D01*
X141740000Y-103702978D01*
X141740000Y-104791354D01*
X141688200Y-104812757D01*
X141284176Y-105216077D01*
X141065250Y-105743309D01*
X141064752Y-106314187D01*
X141282757Y-106841800D01*
X141480612Y-107040000D01*
X138555636Y-107040000D01*
X138622622Y-106973014D01*
X138507747Y-106858139D01*
X138753864Y-106784005D01*
X138946965Y-106246777D01*
X138919778Y-105676546D01*
X138753864Y-105275995D01*
X138507745Y-105201861D01*
X137679605Y-106030000D01*
X137693748Y-106044142D01*
X137514142Y-106223748D01*
X137500000Y-106209605D01*
X137485858Y-106223748D01*
X137306252Y-106044142D01*
X137320395Y-106030000D01*
X136492255Y-105201861D01*
X136246136Y-105275995D01*
X136053035Y-105813223D01*
X136080222Y-106383454D01*
X136246136Y-106784005D01*
X136492253Y-106858139D01*
X136377378Y-106973014D01*
X136444364Y-107040000D01*
X132044802Y-107040000D01*
X130027057Y-105022255D01*
X136671861Y-105022255D01*
X137500000Y-105850395D01*
X138328139Y-105022255D01*
X138254005Y-104776136D01*
X137716777Y-104583035D01*
X137146546Y-104610222D01*
X136745995Y-104776136D01*
X136671861Y-105022255D01*
X130027057Y-105022255D01*
X128225000Y-103220198D01*
X128225000Y-102127000D01*
X136005000Y-102127000D01*
X136005000Y-102537000D01*
X136167401Y-103099444D01*
X136532678Y-103556927D01*
X137045221Y-103839800D01*
X137141539Y-103861389D01*
X137373000Y-103740201D01*
X137373000Y-102127000D01*
X137627000Y-102127000D01*
X137627000Y-103740201D01*
X137858461Y-103861389D01*
X137954779Y-103839800D01*
X138467322Y-103556927D01*
X138832599Y-103099444D01*
X138995000Y-102537000D01*
X138995000Y-102127000D01*
X137627000Y-102127000D01*
X137373000Y-102127000D01*
X136005000Y-102127000D01*
X128225000Y-102127000D01*
X128225000Y-101463000D01*
X136005000Y-101463000D01*
X136005000Y-101873000D01*
X137373000Y-101873000D01*
X137373000Y-100259799D01*
X137627000Y-100259799D01*
X137627000Y-101873000D01*
X138995000Y-101873000D01*
X138995000Y-101463000D01*
X138832599Y-100900556D01*
X138467322Y-100443073D01*
X137954779Y-100160200D01*
X137858461Y-100138611D01*
X137627000Y-100259799D01*
X137373000Y-100259799D01*
X137141539Y-100138611D01*
X137045221Y-100160200D01*
X136532678Y-100443073D01*
X136167401Y-100900556D01*
X136005000Y-101463000D01*
X128225000Y-101463000D01*
X128225000Y-84369802D01*
X135554990Y-91699792D01*
G36*
X138813110Y-67851431D02*
X139065000Y-67902440D01*
X139665000Y-67902440D01*
X139875000Y-67862926D01*
X139875000Y-68415198D01*
X137798200Y-70491998D01*
X137774702Y-70482241D01*
X137223715Y-70481760D01*
X136714485Y-70692169D01*
X136324539Y-71081436D01*
X136313924Y-71107000D01*
X133541802Y-71107000D01*
X132053256Y-69618454D01*
X132074750Y-69566691D01*
X132075248Y-68995813D01*
X131948889Y-68690000D01*
X137120000Y-68690000D01*
X137410839Y-68632148D01*
X137657401Y-68467401D01*
X138222362Y-67902440D01*
X138395000Y-67902440D01*
X138630317Y-67858162D01*
X138729528Y-67794322D01*
X138813110Y-67851431D01*
X138813110Y-67851431D01*
G37*
X138813110Y-67851431D02*
X139065000Y-67902440D01*
X139665000Y-67902440D01*
X139875000Y-67862926D01*
X139875000Y-68415198D01*
X137798200Y-70491998D01*
X137774702Y-70482241D01*
X137223715Y-70481760D01*
X136714485Y-70692169D01*
X136324539Y-71081436D01*
X136313924Y-71107000D01*
X133541802Y-71107000D01*
X132053256Y-69618454D01*
X132074750Y-69566691D01*
X132075248Y-68995813D01*
X131948889Y-68690000D01*
X137120000Y-68690000D01*
X137410839Y-68632148D01*
X137657401Y-68467401D01*
X138222362Y-67902440D01*
X138395000Y-67902440D01*
X138630317Y-67858162D01*
X138729528Y-67794322D01*
X138813110Y-67851431D01*
G36*
X133446673Y-64945302D02*
X133350000Y-65178691D01*
X133350000Y-65994250D01*
X133508750Y-66153000D01*
X134158000Y-66153000D01*
X134158000Y-66133000D01*
X134412000Y-66133000D01*
X134412000Y-66153000D01*
X134432000Y-66153000D01*
X134432000Y-66407000D01*
X134412000Y-66407000D01*
X134412000Y-66427000D01*
X134158000Y-66427000D01*
X134158000Y-66407000D01*
X133508750Y-66407000D01*
X133350000Y-66565750D01*
X133350000Y-67170000D01*
X129370000Y-67170000D01*
X129079161Y-67227852D01*
X128832599Y-67392599D01*
X128225000Y-68000198D01*
X128225000Y-66339802D01*
X129684802Y-64880000D01*
X133511975Y-64880000D01*
X133446673Y-64945302D01*
X133446673Y-64945302D01*
G37*
X133446673Y-64945302D02*
X133350000Y-65178691D01*
X133350000Y-65994250D01*
X133508750Y-66153000D01*
X134158000Y-66153000D01*
X134158000Y-66133000D01*
X134412000Y-66133000D01*
X134412000Y-66153000D01*
X134432000Y-66153000D01*
X134432000Y-66407000D01*
X134412000Y-66407000D01*
X134412000Y-66427000D01*
X134158000Y-66427000D01*
X134158000Y-66407000D01*
X133508750Y-66407000D01*
X133350000Y-66565750D01*
X133350000Y-67170000D01*
X129370000Y-67170000D01*
X129079161Y-67227852D01*
X128832599Y-67392599D01*
X128225000Y-68000198D01*
X128225000Y-66339802D01*
X129684802Y-64880000D01*
X133511975Y-64880000D01*
X133446673Y-64945302D01*
G36*
X133460560Y-49603000D02*
X133504838Y-49838317D01*
X133643910Y-50054441D01*
X133856110Y-50199431D01*
X134108000Y-50250440D01*
X134198000Y-50250440D01*
X134198000Y-53833000D01*
X134255852Y-54123839D01*
X134420599Y-54370401D01*
X134667161Y-54535148D01*
X134958000Y-54593000D01*
X140866198Y-54593000D01*
X141145000Y-54871802D01*
X141145000Y-55300086D01*
X140935000Y-55257560D01*
X140335000Y-55257560D01*
X140099683Y-55301838D01*
X140000472Y-55365678D01*
X139916890Y-55308569D01*
X139665000Y-55257560D01*
X139065000Y-55257560D01*
X138829683Y-55301838D01*
X138730472Y-55365678D01*
X138646890Y-55308569D01*
X138395000Y-55257560D01*
X137795000Y-55257560D01*
X137559683Y-55301838D01*
X137460472Y-55365678D01*
X137376890Y-55308569D01*
X137125000Y-55257560D01*
X136525000Y-55257560D01*
X136289683Y-55301838D01*
X136190472Y-55365678D01*
X136106890Y-55308569D01*
X135855000Y-55257560D01*
X135255000Y-55257560D01*
X135019683Y-55301838D01*
X134920472Y-55365678D01*
X134836890Y-55308569D01*
X134585000Y-55257560D01*
X133985000Y-55257560D01*
X133749683Y-55301838D01*
X133533559Y-55440910D01*
X133388569Y-55653110D01*
X133337560Y-55905000D01*
X133337560Y-57855000D01*
X133381838Y-58090317D01*
X133520910Y-58306441D01*
X133733110Y-58451431D01*
X133985000Y-58502440D01*
X134585000Y-58502440D01*
X134795000Y-58462926D01*
X134795000Y-60145000D01*
X134852852Y-60435839D01*
X135017599Y-60682401D01*
X136425198Y-62090000D01*
X120794802Y-62090000D01*
X119236170Y-60531368D01*
X119275000Y-60336154D01*
X119275000Y-60283846D01*
X119236170Y-60088633D01*
X131076802Y-48248001D01*
X133460560Y-48248001D01*
X133460560Y-49603000D01*
X133460560Y-49603000D01*
G37*
X133460560Y-49603000D02*
X133504838Y-49838317D01*
X133643910Y-50054441D01*
X133856110Y-50199431D01*
X134108000Y-50250440D01*
X134198000Y-50250440D01*
X134198000Y-53833000D01*
X134255852Y-54123839D01*
X134420599Y-54370401D01*
X134667161Y-54535148D01*
X134958000Y-54593000D01*
X140866198Y-54593000D01*
X141145000Y-54871802D01*
X141145000Y-55300086D01*
X140935000Y-55257560D01*
X140335000Y-55257560D01*
X140099683Y-55301838D01*
X140000472Y-55365678D01*
X139916890Y-55308569D01*
X139665000Y-55257560D01*
X139065000Y-55257560D01*
X138829683Y-55301838D01*
X138730472Y-55365678D01*
X138646890Y-55308569D01*
X138395000Y-55257560D01*
X137795000Y-55257560D01*
X137559683Y-55301838D01*
X137460472Y-55365678D01*
X137376890Y-55308569D01*
X137125000Y-55257560D01*
X136525000Y-55257560D01*
X136289683Y-55301838D01*
X136190472Y-55365678D01*
X136106890Y-55308569D01*
X135855000Y-55257560D01*
X135255000Y-55257560D01*
X135019683Y-55301838D01*
X134920472Y-55365678D01*
X134836890Y-55308569D01*
X134585000Y-55257560D01*
X133985000Y-55257560D01*
X133749683Y-55301838D01*
X133533559Y-55440910D01*
X133388569Y-55653110D01*
X133337560Y-55905000D01*
X133337560Y-57855000D01*
X133381838Y-58090317D01*
X133520910Y-58306441D01*
X133733110Y-58451431D01*
X133985000Y-58502440D01*
X134585000Y-58502440D01*
X134795000Y-58462926D01*
X134795000Y-60145000D01*
X134852852Y-60435839D01*
X135017599Y-60682401D01*
X136425198Y-62090000D01*
X120794802Y-62090000D01*
X119236170Y-60531368D01*
X119275000Y-60336154D01*
X119275000Y-60283846D01*
X119236170Y-60088633D01*
X131076802Y-48248001D01*
X133460560Y-48248001D01*
X133460560Y-49603000D01*
G36*
X165789599Y-51957401D02*
X166036161Y-52122148D01*
X166327000Y-52180000D01*
X169702608Y-52180000D01*
X168330485Y-52746950D01*
X167250741Y-53824811D01*
X166665667Y-55233825D01*
X166664336Y-56759482D01*
X167246950Y-58169515D01*
X168324811Y-59249259D01*
X169733825Y-59834333D01*
X171259482Y-59835664D01*
X172669515Y-59253050D01*
X173749259Y-58175189D01*
X174334333Y-56766175D01*
X174335664Y-55240518D01*
X173753050Y-53830485D01*
X172675189Y-52750741D01*
X171300693Y-52180000D01*
X177315198Y-52180000D01*
X178013000Y-52877802D01*
X178013000Y-59040000D01*
X178070852Y-59330839D01*
X178235599Y-59577401D01*
X178482161Y-59742148D01*
X178773000Y-59800000D01*
X179681293Y-59800000D01*
X179945971Y-60196120D01*
X180116405Y-60310000D01*
X179945971Y-60423880D01*
X179681293Y-60820000D01*
X169054802Y-60820000D01*
X166610401Y-58375599D01*
X166363839Y-58210852D01*
X166073000Y-58153000D01*
X146579925Y-58153000D01*
X146611431Y-58106890D01*
X146662440Y-57855000D01*
X146662440Y-57766000D01*
X151638259Y-57766000D01*
X151638264Y-57766001D01*
X151920748Y-57709810D01*
X151976939Y-57698633D01*
X152264054Y-57506790D01*
X156665787Y-53105056D01*
X156665790Y-53105054D01*
X156857633Y-52817939D01*
X156903903Y-52585327D01*
X156925001Y-52479264D01*
X156925000Y-52479259D01*
X156925000Y-52361822D01*
X156974838Y-52241799D01*
X156975162Y-51869833D01*
X156833117Y-51526057D01*
X156570327Y-51262808D01*
X156226799Y-51120162D01*
X155854833Y-51119838D01*
X155511057Y-51261883D01*
X155247808Y-51524673D01*
X155105162Y-51868201D01*
X155104905Y-52162780D01*
X151271684Y-55996000D01*
X146662440Y-55996000D01*
X146662440Y-55905000D01*
X146618162Y-55669683D01*
X146479090Y-55453559D01*
X146266890Y-55308569D01*
X146015000Y-55257560D01*
X145415000Y-55257560D01*
X145205000Y-55297074D01*
X145205000Y-50620000D01*
X145147148Y-50329161D01*
X145086218Y-50237973D01*
X145412089Y-50238257D01*
X145494432Y-50204234D01*
X146390000Y-51099802D01*
X146390000Y-53397537D01*
X146357808Y-53429673D01*
X146215162Y-53773201D01*
X146214838Y-54145167D01*
X146356883Y-54488943D01*
X146619673Y-54752192D01*
X146963201Y-54894838D01*
X147335167Y-54895162D01*
X147678943Y-54753117D01*
X147942192Y-54490327D01*
X148084838Y-54146799D01*
X148085162Y-53774833D01*
X147943117Y-53431057D01*
X147910000Y-53397882D01*
X147910000Y-50785000D01*
X147852148Y-50494161D01*
X147687401Y-50247599D01*
X146952802Y-49513000D01*
X163345198Y-49513000D01*
X165789599Y-51957401D01*
X165789599Y-51957401D01*
G37*
X165789599Y-51957401D02*
X166036161Y-52122148D01*
X166327000Y-52180000D01*
X169702608Y-52180000D01*
X168330485Y-52746950D01*
X167250741Y-53824811D01*
X166665667Y-55233825D01*
X166664336Y-56759482D01*
X167246950Y-58169515D01*
X168324811Y-59249259D01*
X169733825Y-59834333D01*
X171259482Y-59835664D01*
X172669515Y-59253050D01*
X173749259Y-58175189D01*
X174334333Y-56766175D01*
X174335664Y-55240518D01*
X173753050Y-53830485D01*
X172675189Y-52750741D01*
X171300693Y-52180000D01*
X177315198Y-52180000D01*
X178013000Y-52877802D01*
X178013000Y-59040000D01*
X178070852Y-59330839D01*
X178235599Y-59577401D01*
X178482161Y-59742148D01*
X178773000Y-59800000D01*
X179681293Y-59800000D01*
X179945971Y-60196120D01*
X180116405Y-60310000D01*
X179945971Y-60423880D01*
X179681293Y-60820000D01*
X169054802Y-60820000D01*
X166610401Y-58375599D01*
X166363839Y-58210852D01*
X166073000Y-58153000D01*
X146579925Y-58153000D01*
X146611431Y-58106890D01*
X146662440Y-57855000D01*
X146662440Y-57766000D01*
X151638259Y-57766000D01*
X151638264Y-57766001D01*
X151920748Y-57709810D01*
X151976939Y-57698633D01*
X152264054Y-57506790D01*
X156665787Y-53105056D01*
X156665790Y-53105054D01*
X156857633Y-52817939D01*
X156903903Y-52585327D01*
X156925001Y-52479264D01*
X156925000Y-52479259D01*
X156925000Y-52361822D01*
X156974838Y-52241799D01*
X156975162Y-51869833D01*
X156833117Y-51526057D01*
X156570327Y-51262808D01*
X156226799Y-51120162D01*
X155854833Y-51119838D01*
X155511057Y-51261883D01*
X155247808Y-51524673D01*
X155105162Y-51868201D01*
X155104905Y-52162780D01*
X151271684Y-55996000D01*
X146662440Y-55996000D01*
X146662440Y-55905000D01*
X146618162Y-55669683D01*
X146479090Y-55453559D01*
X146266890Y-55308569D01*
X146015000Y-55257560D01*
X145415000Y-55257560D01*
X145205000Y-55297074D01*
X145205000Y-50620000D01*
X145147148Y-50329161D01*
X145086218Y-50237973D01*
X145412089Y-50238257D01*
X145494432Y-50204234D01*
X146390000Y-51099802D01*
X146390000Y-53397537D01*
X146357808Y-53429673D01*
X146215162Y-53773201D01*
X146214838Y-54145167D01*
X146356883Y-54488943D01*
X146619673Y-54752192D01*
X146963201Y-54894838D01*
X147335167Y-54895162D01*
X147678943Y-54753117D01*
X147942192Y-54490327D01*
X148084838Y-54146799D01*
X148085162Y-53774833D01*
X147943117Y-53431057D01*
X147910000Y-53397882D01*
X147910000Y-50785000D01*
X147852148Y-50494161D01*
X147687401Y-50247599D01*
X146952802Y-49513000D01*
X163345198Y-49513000D01*
X165789599Y-51957401D01*
G36*
X141318344Y-49593086D02*
X141735717Y-50011188D01*
X142281319Y-50237742D01*
X142872089Y-50238257D01*
X142954432Y-50204234D01*
X143685000Y-50934802D01*
X143685000Y-53090853D01*
X143526799Y-53025162D01*
X143154833Y-53024838D01*
X142811057Y-53166883D01*
X142547808Y-53429673D01*
X142405162Y-53773201D01*
X142404980Y-53982178D01*
X141718401Y-53295599D01*
X141471839Y-53130852D01*
X141181000Y-53073000D01*
X135718000Y-53073000D01*
X135718000Y-50250440D01*
X135808000Y-50250440D01*
X136043317Y-50206162D01*
X136259441Y-50067090D01*
X136404431Y-49854890D01*
X136420496Y-49775557D01*
X136655717Y-50011188D01*
X137201319Y-50237742D01*
X137792089Y-50238257D01*
X138338086Y-50012656D01*
X138756188Y-49595283D01*
X138767748Y-49567443D01*
X138778344Y-49593086D01*
X139195717Y-50011188D01*
X139741319Y-50237742D01*
X140332089Y-50238257D01*
X140878086Y-50012656D01*
X141296188Y-49595283D01*
X141307748Y-49567443D01*
X141318344Y-49593086D01*
X141318344Y-49593086D01*
G37*
X141318344Y-49593086D02*
X141735717Y-50011188D01*
X142281319Y-50237742D01*
X142872089Y-50238257D01*
X142954432Y-50204234D01*
X143685000Y-50934802D01*
X143685000Y-53090853D01*
X143526799Y-53025162D01*
X143154833Y-53024838D01*
X142811057Y-53166883D01*
X142547808Y-53429673D01*
X142405162Y-53773201D01*
X142404980Y-53982178D01*
X141718401Y-53295599D01*
X141471839Y-53130852D01*
X141181000Y-53073000D01*
X135718000Y-53073000D01*
X135718000Y-50250440D01*
X135808000Y-50250440D01*
X136043317Y-50206162D01*
X136259441Y-50067090D01*
X136404431Y-49854890D01*
X136420496Y-49775557D01*
X136655717Y-50011188D01*
X137201319Y-50237742D01*
X137792089Y-50238257D01*
X138338086Y-50012656D01*
X138756188Y-49595283D01*
X138767748Y-49567443D01*
X138778344Y-49593086D01*
X139195717Y-50011188D01*
X139741319Y-50237742D01*
X140332089Y-50238257D01*
X140878086Y-50012656D01*
X141296188Y-49595283D01*
X141307748Y-49567443D01*
X141318344Y-49593086D01*
M02*
