M48
;DRILL file {KiCad 4.0.7-e2-6376~58~ubuntu16.04.1} date Thu Nov 16 14:32:51 2017
;FORMAT={-:-/ absolute / metric / decimal}
FMAT,2
METRIC,TZ
T1C0.400
T2C0.500
T3C0.600
T4C0.700
T5C0.762
T6C0.800
T7C1.000
T8C1.200
T9C1.650
T10C2.000
T11C3.200
%
G90
G05
M71
T1
X104.7Y-78.
X109.Y-83.615
X114.5Y-78.01
X130.Y-60.
X131.529Y-66.279
X132.339Y-73.
X133.561Y-70.
X137.5Y-104.2
X139.Y-51.
X141.435Y-83.932
X143.34Y-53.96
X143.34Y-78.09
X147.15Y-53.96
X151.938Y-51.5
X151.938Y-53.5
X151.938Y-58.
X154.897Y-70.343
X156.04Y-45.705
X156.04Y-52.055
X156.6Y-92.7
X168.56Y-101.
X171.5Y-67.168
X177.63Y-77.
T2
X92.6Y-45.
X92.6Y-106.5
X93.303Y-43.303
X93.303Y-46.697
X93.303Y-104.803
X93.303Y-108.197
X95.Y-42.6
X95.Y-47.4
X95.Y-104.1
X95.Y-108.9
X96.697Y-43.303
X96.697Y-46.697
X96.697Y-104.803
X96.697Y-108.197
X97.4Y-45.
X97.4Y-106.5
X107.1Y-45.
X107.1Y-56.
X107.803Y-43.303
X107.803Y-46.697
X107.803Y-54.303
X107.803Y-57.697
X109.5Y-42.6
X109.5Y-47.4
X109.5Y-53.6
X109.5Y-58.4
X111.197Y-43.303
X111.197Y-46.697
X111.197Y-54.303
X111.197Y-57.697
X111.9Y-45.
X111.9Y-56.
X168.1Y-45.
X168.1Y-56.
X168.803Y-43.303
X168.803Y-46.697
X168.803Y-54.303
X168.803Y-57.697
X170.5Y-42.6
X170.5Y-47.4
X170.5Y-53.6
X170.5Y-58.4
X172.197Y-43.303
X172.197Y-46.697
X172.197Y-54.303
X172.197Y-57.697
X172.9Y-45.
X172.9Y-56.
X182.6Y-45.
X182.6Y-106.303
X183.303Y-43.303
X183.303Y-46.697
X183.303Y-104.606
X183.303Y-108.
X185.Y-42.6
X185.Y-47.4
X185.Y-103.903
X185.Y-108.703
X186.697Y-43.303
X186.697Y-46.697
X186.697Y-104.606
X186.697Y-108.
X187.4Y-45.
X187.4Y-106.303
T3
X113.012Y-94.486
X114.282Y-93.216
X115.552Y-94.486
T4
X104.783Y-92.555
X104.783Y-100.175
X117.94Y-60.31
X117.94Y-67.93
X125.433Y-65.263
X125.433Y-72.883
X145.98Y-106.
X153.48Y-92.4
X153.5Y-89.52
X153.6Y-106.
X157.21Y-95.18
X157.21Y-102.8
X158.58Y-62.85
X158.58Y-70.47
X161.1Y-92.4
X161.12Y-89.52
X163.66Y-62.85
X163.66Y-70.47
X166.18Y-92.4
X166.2Y-89.52
X173.8Y-92.4
X173.82Y-89.52
T5
X137.5Y-87.5
X137.5Y-102.
X140.Y-87.5
X142.5Y-87.5
X142.5Y-102.
T6
X109.05Y-74.28
X109.05Y-76.78
X117.94Y-73.01
X117.94Y-78.01
X130.64Y-69.28
X130.64Y-74.28
X137.498Y-71.867
X137.5Y-106.03
X142.498Y-71.867
X142.5Y-106.03
X147.15Y-81.9
X148.801Y-69.2
X148.801Y-74.2
X152.15Y-81.9
X163.56Y-98.99
X168.56Y-98.99
X172.63Y-81.9
X177.63Y-81.9
T7
X134.958Y-46.213
X134.958Y-48.753
X137.498Y-46.213
X137.498Y-48.753
X140.038Y-46.213
X140.038Y-48.753
X142.578Y-46.213
X142.578Y-48.753
X145.118Y-46.213
X145.118Y-48.753
X158.58Y-81.9
X158.58Y-84.44
X161.12Y-81.9
X161.12Y-84.44
X163.66Y-81.9
X163.66Y-84.44
X166.2Y-81.9
X166.2Y-84.44
T8
X113.2Y-104.4
X115.74Y-104.4
X164.56Y-104.4
X167.1Y-104.4
X181.44Y-56.5
X181.44Y-59.04
X181.44Y-61.58
X181.44Y-64.12
X181.44Y-70.47
X181.44Y-73.01
T9
X99.5Y-74.04
X99.5Y-78.
X99.5Y-81.96
X99.5Y-85.92
T11
X95.Y-45.
X95.Y-106.5
X109.5Y-45.
X109.5Y-56.
X170.5Y-45.
X170.5Y-56.
X185.Y-45.
X185.Y-106.303
T10
X134.5Y-95.2G85X134.5Y-94.8
G05
X145.6Y-95.2G85X145.6Y-94.8
G05
T0
M30
